<svg version="1.1" xmlns="http://www.w3.org/2000/svg" xmlns:xlink="http://www.w3.org/1999/xlink" width="112.66944" height="57.07188" viewBox="0,0,112.66944,57.07188"><g transform="translate(-183.66528,-152.67381)"><g stroke-miterlimit="10"><path d="M202.6178,186.74253h77.87037" fill="none" stroke="#000000" stroke-width="2" stroke-linecap="round"/><path d="M261.06168,170.31033c0,-9.74038 7.89614,-17.63652 17.63652,-17.63652c9.74038,0 17.63652,7.89614 17.63652,17.63652c0,9.74038 -7.89614,17.63652 -17.63652,17.63652c-9.74038,0 -17.63652,-7.89614 -17.63652,-17.63652z" fill="#000000" stroke="#000000" stroke-width="0" stroke-linecap="butt"/><path d="M183.66528,170.46106c0,-9.74038 7.89614,-17.63652 17.63652,-17.63652c9.74038,0 17.63652,7.89614 17.63652,17.63652c0,9.74038 -7.89614,17.63652 -17.63652,17.63652c-9.74038,0 -17.63652,-7.89614 -17.63652,-17.63652z" fill="#000000" stroke="#000000" stroke-width="0" stroke-linecap="butt"/><path d="M216.76772,184.87961l-29.84655,22.44658l10.11329,-21.45991z" fill="#000000" stroke="#000000" stroke-width="1.5" stroke-linecap="round"/><g fill="#ffffff"><path d="M185.66834,170.46106c0,-8.63412 6.99934,-15.63346 15.63346,-15.63346c8.63412,0 15.63346,6.99934 15.63346,15.63346c0,8.63412 -6.99934,15.63346 -15.63346,15.63346c-8.63412,0 -15.63346,-6.99934 -15.63346,-15.63346z" stroke="#000000" stroke-width="0" stroke-linecap="butt"/><path d="M263.12003,170.46106c0,-8.63412 6.99934,-15.63346 15.63346,-15.63346c8.63412,0 15.63346,6.99934 15.63346,15.63346c0,8.63412 -6.99934,15.63347 -15.63346,15.63347c-8.63412,0 -15.63346,-6.99936 -15.63346,-15.63346z" stroke="#000000" stroke-width="0" stroke-linecap="butt"/><path d="M281.035,184.90019h-78.76859l-1.99357,-29.05148h78.76859z" stroke="#ffffff" stroke-width="2" stroke-linecap="round"/></g><path d="M215.08958,184.51006l-24.25191,18.23904l8.21759,-17.43732z" fill="#ffffff" stroke="#ffffff" stroke-width="1.5" stroke-linecap="round"/><path d="M279.86903,153.70502h-77.87037" fill="none" stroke="#000000" stroke-width="2" stroke-linecap="round"/><text transform="translate(191.59876,176.29869) scale(0.38206,0.38206)" font-size="40" xml:space="preserve" fill="#000000" stroke="none" stroke-width="1" stroke-linecap="butt" font-family="Pixel" font-weight="normal" text-anchor="start"><tspan x="0" dy="0">Can I Order?</tspan></text></g></g></svg>