<svg version="1.1" xmlns="http://www.w3.org/2000/svg" xmlns:xlink="http://www.w3.org/1999/xlink" width="301.98672" height="106.53846" viewBox="0,0,301.98672,106.53846"><g transform="translate(-77.5,-100.64102)"><g stroke="none" stroke-miterlimit="10"><path d="M77.5,207.17948v-106.53846h301.98672v106.53846z" fill="none" stroke-width="0"/><path d="M225.51985,184.14126c-1.04537,-1.96006 0.11054,-6.44688 3.21435,-4.67327c1.53297,0.87598 1.75257,2.13588 3.74637,3.08612c0.45631,0.21748 1.67686,0.5351 2.89165,0.89499c-0.46809,-3.72197 -0.37865,-11.12702 -0.7836,-13.40617c-0.0963,-0.54198 -3.09588,-0.70576 -3.35494,-0.75996c-2.45958,-0.51463 -4.66859,-2.12518 -5.07786,-4.67553c-0.29968,-1.86747 1.27627,-2.30674 1.99269,-3.58109c0.69317,-1.23298 0.2949,-2.93743 1.48426,-3.95688c2.28041,-1.95463 14.67337,0.69746 16.71426,2.79041c2.26256,2.3203 2.44859,9.79279 -0.61528,11.32473c-1.20636,0.60318 -2.76423,0.5558 -4.07579,0.65905c-0.17711,0.01394 -1.95146,0.14707 -1.95182,0.20451c-0.0255,4.04472 0.93098,7.46617 0.82644,11.58324c1.55084,-0.27214 3.27823,-0.26567 4.71083,-1.05915c1.69705,-0.93995 2.35857,-3.20216 4.35331,-3.64544c1.9989,-0.4442 4.18082,1.72844 2.99026,3.7127c-1.77527,2.95879 -6.58852,5.68881 -9.82547,6.00933c-0.27776,0.0275 -0.74094,0.12647 -1.26194,0.21938c0.36174,2.36694 0.48795,4.88677 1.14961,6.91841c0.44417,1.36382 2.83863,1.3617 4.35431,1.74409c2.05987,0.51968 1.1427,2.67252 1.7515,5.6335c0.47807,2.32516 -0.58992,2.58183 -1.43581,2.09816c-1.82162,-1.04159 -0.9991,-1.23844 -2.82459,-2.80314c-1.71438,-1.46947 -4.57069,-0.33692 -5.35452,-2.16959c-0.56554,2.05414 -2.80711,2.49009 -4.18805,4.01464c-1.45154,1.6025 -7.48708,2.41072 -8.44375,0.73655l-1.62116,-2.93452c0.79841,-1.39722 3.03795,0.14294 4.36638,-0.19146c2.51015,-0.63188 6.41828,0.48159 6.6703,-1.7417c0.21389,-1.88693 -0.95072,-3.11944 -0.87112,-5.01267c0.08054,-1.9158 -0.06026,-4.1405 -0.02202,-6.26667c-3.69334,-0.9924 -8.91112,-3.63187 -9.50881,-4.75255z" fill="#000000" stroke-width="0.5"/><path d="M230.19894,162.75916c0,-1.38071 1.11929,-2.5 2.5,-2.5c1.38071,0 2.5,1.11929 2.5,2.5c0,1.38071 -1.11929,2.5 -2.5,2.5c-1.38071,0 -2.5,-1.11929 -2.5,-2.5z" fill="#ffffff" stroke-width="0.5"/><path d="M239.55588,163.91433c0,-1.38071 1.11929,-2.5 2.5,-2.5c1.38071,0 2.5,1.11929 2.5,2.5c0,1.38071 -1.11929,2.5 -2.5,2.5c-1.38071,0 -2.5,-1.11929 -2.5,-2.5z" fill="#ffffff" stroke-width="0.5"/></g></g></svg>