<svg version="1.1" xmlns="http://www.w3.org/2000/svg" xmlns:xlink="http://www.w3.org/1999/xlink" width="57.78815" height="106.13672" viewBox="0,0,57.78815,106.13672"><g transform="translate(-214.89935,-124.08333)"><g stroke="none" stroke-miterlimit="10"><path d="M222.92716,209.46486c0.26581,3.1262 0.6493,6.25675 0.87508,9.39214c0.1132,1.57212 0.00134,3.15239 0.01027,4.72856c0.00913,1.61053 1.49367,4.11208 0.4375,5.62277c-0.99253,1.41966 -3.378,1.27634 -4.375,0c-1.42333,-1.82212 -1.03531,-8.56128 -1.0625,-10.01159c-0.08384,-4.472 -0.96596,-8.93683 -1.10564,-13.41096c-0.08944,-2.86467 -2.02664,-7.05478 -0.23488,-8.91361l-0.12547,-0.75283l0.01666,-0.20828l-0.05068,-0.20272v-0.54309l-0.09098,-0.54591l0.01666,-0.20828l-0.05068,-0.20272v-4.00245l-0.07645,-0.38226l0.01184,-0.24872l-0.06039,-0.24157v-0.91809l-0.09098,-0.54591l0.01666,-0.20828l-0.05068,-0.20272v-3.54309l-0.09098,-0.54591l0.01666,-0.20828l-0.05068,-0.20272v-3.07233l-0.09987,-0.69912l0.01852,-0.17898l-0.04364,-0.17457v-4.37745l-0.07645,-0.38226l0.01184,-0.24872l-0.06039,-0.24157v-2.32233l-0.09987,-0.69912l0.01852,-0.17898l-0.04364,-0.17457v-2.54309l-0.09098,-0.54591l0.01666,-0.20828l-0.05068,-0.20272v-30.48654l-0.10971,-0.98738l0.01886,-0.1395l-0.03414,-0.13658v-1.66276l-0.22132,-0.1897l-0.00547,-0.09857l-0.08571,-0.04898l-0.3125,-1.25v-0.08688l-0.01558,-0.02337l0.01558,-0.0701v-0.06966l0.13932,-0.55728l0.12461,-0.56075l0.03116,-0.06231l0.01741,-0.06966l0.02438,-0.01393l0.05205,-0.1041l0.13284,-0.15498l0.00691,-0.12454l0.09857,-0.08449c0.01627,-0.38626 0.12018,-0.74985 0.29236,-1.0714l0.01789,-0.07157l0.03296,-0.01883c0.43488,-0.73686 1.23699,-1.23116 2.15454,-1.23116c0.10515,0 0.20878,0.00649 0.31052,0.01909l0.41796,-0.73143l0.25376,-0.93042l0.32923,-0.08979l0.18854,-0.32994l1.25,-0.3125h1.44224l0.20143,-0.05036h0.10189l0.09345,-0.04063l0.75,-0.125l0.20829,0.01667l0.20271,-0.05068h1.00245l0.38226,-0.07645l0.24872,0.01185l0.24157,-0.06039h6.8866l1.26207,-0.11473l0.11421,0.01777l0.11213,-0.02804h2.55882l1.43604,-0.22093l0.09649,0.00893l0.09192,-0.03064l1.625,-0.125l0.09664,0.01641l0.0951,-0.02378h4.125l0.11213,0.02804l0.11421,-0.01777l1.26207,0.11473h1.51159l0.07745,0.01936l0.0785,-0.01449l1.99543,0.12471l2.12043,0.12473l0.04431,0.01389l0.04591,-0.00694l2.61966,0.24949l0.45668,0.04151l0.12414,-0.05227l0.11448,0.0495l0.02601,-0.0065l0.01102,-0.00899l0.01006,0.00372l0.15094,-0.03773h0.25l0.72091,0.18023l0.88043,0.08004l0.00522,0.00182l0.00547,-0.00083l2.625,0.25l0.06509,0.02302l0.06873,-0.00662l2.5,0.375l0.03058,0.01271l0.03303,-0.00232l2.11327,0.37293l1.48826,0.24804l0.06284,0.02732l0.06849,-0.0018l0.8571,0.19047h0.22557l1.25,0.3125l0.34091,0.59659l0.59659,0.34091l0.13149,0.52599l0.00666,0.00499l0.00509,0.04198l0.16926,0.67704v0.25l-0.03832,0.15326l0.01901,0.15683l-0.1057,0.84556v0.46935l-0.03415,0.13658l0.01886,0.1395l-0.10971,0.98738v0.86154l-0.05068,0.20272l0.01666,0.20828l-0.09098,0.54591v1.54309l-0.07464,0.29857v0.30777l-0.05036,0.20143v4.30378l0.35971,3.23738l-0.01886,0.13951l0.03415,0.13657v0.9181l0.21598,1.29591l-0.00834,0.10431l0.03372,0.09907l0.1189,1.42678l0.23771,1.66397l0.24795,1.61172l-0.00238,0.02572l0.00952,0.02401l0.25,1.875l-0.00119,0.01048l0.00381,0.00984l0.25,2l-0.01009,0.08326l0.02508,0.08002l0.11811,2.00775l0.23214,1.50892l-0.0106,0.11455l0.03481,0.10965l0.125,2l-0.01449,0.07851l0.01936,0.07744v17.54176l0.11907,1.78603l0.12457,1.74409l-0.01574,0.08973l0.02209,0.08838v1.16083l0.11865,1.66106l-0.01574,0.08973l0.02209,0.08838v1.0116l0.11473,1.26207l-0.01777,0.1142l0.02803,0.11213v0.98654l0.10971,0.98738l-0.01886,0.13951l0.03415,0.13657v4.62532l0.11259,1.12593l-0.01839,0.12561l0.03079,0.12315v1.75l-0.05068,0.20272l0.01666,0.20828l-0.09098,0.54591v0.29309l-0.11962,0.47849l0.0503,0.18443l-0.16527,0.27545l-0.07791,0.31163l-0.16598,0.09485l-0.25376,0.42292l-0.24942,0.24943c1.08687,6.82734 0.71872,14.51762 0.23166,20.9828c-0.15366,2.03968 0.54709,7.25 -2.75,7.25c-3.43932,0 -2.44164,-4.6959 -2.375,-6.75c0.22029,-6.79017 0.78405,-14.10457 -0.22526,-21h-6.64974l-0.12315,-0.03078l-0.12561,0.01838l-1.25,-0.125l-0.01331,-0.00477l-0.01401,0.00189l-0.98739,-0.10971h-1.11154l-0.12315,-0.03078l-0.12561,0.01838l-2.37593,-0.23759h-1.12531l-0.11213,-0.02803l-0.11421,0.01777l-1.35771,-0.12343l-1.60769,-0.12366l-0.12451,-0.04151l-0.13097,0.00854l-1.15321,-0.20968h-1.02457l-0.20271,-0.05067l-0.20829,0.01666l-1.29591,-0.21599h-1.16809l-0.13657,-0.03414l-0.13951,0.01885l-1.11134,-0.12348l-1.11226,-0.11123h-1.12531l-0.13657,-0.03414l-0.13951,0.01885l-1.07021,-0.11891l-1.73694,-0.1158h-0.16676l-0.2671,-0.06677l-0.27523,0.00724l-0.8571,-0.19047h-0.85057l-0.33829,-0.08457l-0.34851,-0.01162l-0.68961,-0.19703l-0.79169,-0.09896l-1.10799,-0.12311l-0.01651,-0.00614l-0.01749,0.00212l-0.84556,-0.10569h-4.26245l-0.54591,0.09099l-0.20829,-0.01666l-0.20271,0.05067h-0.4693l-0.36513,0.12171l-0.4007,0.03082l-0.37877,0.09469l-0.12435,0.0829l-0.40291,0.1439l-0.08936,0.04765c0.39469,2.88041 -0.56506,6.38013 -0.27982,9.73485z" fill="#a96517" stroke-width="0.5"/><path d="M225.61746,193.58073c4.99082,4.53984 4.26452,12.95646 6.50754,18.6276c0.68579,1.73392 1.55194,4.84527 -0.44447,5.98607c-0.99406,0.56803 -3.23134,-0.40023 -3.47911,-1.36803c-1.07502,-4.19919 -1.53892,-8.54656 -2.94788,-12.60385c-0.93203,-2.68389 -2.74224,-5.13708 -3.6693,-7.91825c-0.09499,-0.2642 -0.14675,-0.54903 -0.14675,-0.84593c0,-1.38071 1.11929,-2.5 2.5,-2.5c0.19231,0 0.37955,0.02172 0.55939,0.06283c0.39186,0.06777 0.77594,0.24608 1.12056,0.55957z" fill="#a96517" stroke-width="0.5"/><path d="M267.75,198.95833c0.03771,0.06705 0.06793,0.14041 0.091,0.21972c0.14228,0.31416 0.2215,0.66296 0.2215,1.03028c0,0.76241 -0.34128,1.44511 -0.87941,1.90367c-1.73523,3.85876 -6.09926,9.66541 -7.11721,11.67976c-0.93343,1.8471 -0.89247,4.85843 -2.85584,5.51289c-2.23607,0.74535 -3.16776,0.27951 -3.91312,-1.95656c-0.35863,-1.07591 2.30542,-5.82151 2.40451,-6.00778c0.83552,-1.57064 6.65455,-11.79968 7.70653,-12.40081c0.43488,-0.73685 1.23699,-1.23117 2.15454,-1.23117c0.81357,0 1.53638,0.38863 1.99291,0.99036c0.07451,0.07697 0.14011,0.16278 0.19459,0.25964z" fill="#a96517" stroke-width="0.5"/><path d="M222.44094,164.62277c-2.02901,-0.2767 -4.78277,-21.16923 0,-21.66666c0.96825,-0.1007 19.07407,21.59366 18.33333,21.66666c-11.03805,1.08777 -11.24413,0.96679 -18.33333,0z" fill="#000000" stroke-width="0"/><path d="M242.40103,156.78756c0.01039,0.0257 -0.36611,0.89723 -0.36369,1.07595c-0.00133,0.28453 -0.0056,1.05356 -0.06434,1.80624c0.04534,0.10969 0.06871,0.2067 0.06112,0.27084c-0.02489,0.21045 -0.07698,0.38579 -0.15096,0.53037c-0.07748,0.49184 -0.19427,0.8761 -0.37052,0.95685c-0.61996,0.28404 -2.57623,-0.33105 -3.26144,-0.45516c0.14162,-1.22333 1.212,-4.25028 2.06307,-5.13777c0,0 0.17677,-0.17677 0.35355,0c0.10204,0.10204 0.08628,0.20407 0.05472,0.27211c0.35497,-0.00753 0.74939,0.10631 0.90543,0.23616l0.23297,0.07765c0.07709,0.02371 0.13828,0.08369 0.16368,0.16002c0.19768,0.05596 0.34414,0.12689 0.37641,0.20673zM238.80776,160.60448c0.02462,-0.0097 0.04946,-0.01827 0.07448,-0.02577c-0.0058,-0.00343 -0.01144,-0.0071 -0.01692,-0.01098c-0.01879,0.01278 -0.03797,0.02504 -0.05756,0.03675z" fill="#8bda2b" stroke-width="0.5"/><path d="M240.28048,156.8909c0.2466,0.0411 0.2055,0.2877 0.2055,0.2877l-0.03039,0.16161c0,0.13345 -0.00359,0.26827 -0.00707,0.40356c0.02475,-0.06462 0.08018,-0.13169 0.20244,-0.14527c0.0128,-0.00142 0.025,-0.00211 0.03665,-0.00214c0.00001,-0.08298 0.00389,-0.16626 0.01275,-0.24997c0,0 0.02761,-0.24848 0.27608,-0.22087c0.24847,0.02761 0.22086,0.27608 0.22086,0.27608c-0.07346,0.62562 0.16937,1.25928 0.17045,1.89807v0.06757c0,0 0,0.25 -0.25,0.25c-0.02125,0 -0.0407,-0.00181 -0.05849,-0.00512c-0.00701,0.03969 -0.02507,0.09965 -0.07163,0.14498c1.25038,0.0327 2.46734,0.08259 3.57749,0.14346c1.9921,0.10923 5.64815,-0.6019 5.64815,2.59259c0,3.40908 -10.98996,2.58728 -13.05555,2.68518c-0.55416,0.02626 -4.8842,0.01177 -4.9688,-1.51093c-0.25403,-0.39131 -0.40157,-0.85814 -0.40157,-1.35943c0,-1.22776 0.88503,-2.2488 2.05193,-2.45996c0.09689,-0.03131 0.19936,-0.05052 0.30832,-0.05562c1.97585,-0.09251 4.27081,-0.0959 6.48363,-0.04413c-0.06751,-0.07387 -0.06752,-0.17833 -0.06752,-0.17833l0.00193,-0.03656c-0.00633,-0.05059 -0.0121,-0.10116 -0.01744,-0.1517c-0.02584,0.03531 -0.06626,0.06688 -0.1284,0.08759c-0.23717,0.07906 -0.31623,-0.15812 -0.31623,-0.15812c-0.20954,-0.63802 -0.14796,-1.3064 -0.14796,-1.97095l0.03719,-0.24381c0,0 0.0411,-0.2466 0.2877,-0.2055zM240.44302,157.99891c-0.00419,0.30138 0.00367,0.60235 0.06424,0.89312c-0.02018,-0.29746 -0.03528,-0.5948 -0.06424,-0.89312z" fill="#000000" stroke-width="0.5"/><path d="" fill="#8bda2b" stroke-width="0.5"/><path d="M214.89935,151.56417c0.05979,0.17281 0.07487,0.35239 0.02507,0.49089c-0.00523,-0.165 -0.01345,-0.32889 -0.02507,-0.49089z" fill="#000000" stroke-width="0.5"/><path d="M239.75491,158.56671c-0.0155,-0.05606 -0.02362,-0.11423 -0.02236,-0.17511l0.05661,-0.04932l-0.02535,-0.0169l0.16451,-0.24678c0.00998,-0.01546 0.02161,-0.02974 0.03466,-0.0426c-0.1755,-0.03104 -0.28207,-0.09971 -0.33879,-0.19112c-0.04278,-0.04486 -0.06904,-0.10561 -0.06904,-0.1725c0,-0.01348 0.00106,-0.02671 0.00312,-0.03961l0.04106,-0.28741l0.02921,0.00417c-0.00188,-0.16617 0.03071,-0.31932 0.1123,-0.56448l0.01355,-0.01304l-0.00619,-0.0031l0.12258,-0.24516c0.04009,-0.08456 0.12623,-0.14304 0.22603,-0.14304c0.13807,0 0.25,0.11193 0.25,0.25v0.20526c0.03646,-0.01332 0.07515,-0.02072 0.11618,-0.02107c0.02851,-0.01131 0.05961,-0.01753 0.09216,-0.01753c0.05283,0 0.10182,0.01638 0.14219,0.04435l0.06431,-0.09646c0.04451,-0.06893 0.12201,-0.11455 0.21016,-0.11455c0.13807,0 0.25,0.11193 0.25,0.25c0,0.02969 -0.00518,0.05817 -0.01468,0.08459l-0.00185,0.00555c0.01867,-0.00445 0.03816,-0.00681 0.05819,-0.00681c0.13807,0 0.25,0.11193 0.25,0.25c0,0.03694 -0.00802,0.072 -0.02239,0.10356l-0.12282,0.28659l-0.0055,-0.00235l-0.0005,0.01531c-0.02245,0.0379 -0.04839,0.0798 -0.07742,0.12344c-0.00222,0.00785 -0.00472,0.01581 -0.00746,0.02391c0.15437,0.16227 0.21672,0.53524 0.26024,0.89289c0.09356,0.13823 0.14039,0.3648 0.08567,0.63728c0.00405,0.01819 0.00829,0.03536 0.01276,0.05137l-0.02513,0.00393c-0.00251,0.01019 -0.00516,0.02044 -0.00795,0.03075h0.0355v0.03472l0.03827,0.00638l-0.041,0.24594c-0.0179,0.12051 -0.12179,0.21296 -0.24727,0.21296c-0.08852,0 -0.1663,-0.04601 -0.21072,-0.11542c-0.03623,0.02043 -0.07806,0.03208 -0.12261,0.03208c-0.10265,0 -0.19085,-0.06187 -0.22935,-0.15034c-0.03455,0.00732 -0.07371,0.01176 -0.11579,0.01328c-0.04259,0.03365 -0.09638,0.05373 -0.15486,0.05373c-0.08248,0 -0.15564,-0.03994 -0.20117,-0.10154c-0.16268,-0.0494 -0.30773,-0.13712 -0.36096,-0.26555c-0.48155,-0.00741 -0.91803,-0.08157 -0.93738,-0.24238c-0.02863,-0.23795 0.32601,-0.41683 0.69926,-0.53788z" fill="#8bda2b" stroke-width="0.5"/><text transform="translate(240.87337,159.60167) rotate(-66.28505) scale(0.05489,0.05489)" font-size="40" xml:space="preserve" fill="#000000" stroke-width="1" font-family="Pixel" font-weight="normal" text-anchor="start"><tspan x="0" dy="0">$1</tspan></text></g></g></svg>