<svg version="1.1" xmlns="http://www.w3.org/2000/svg" xmlns:xlink="http://www.w3.org/1999/xlink" width="69.04257" height="90.28516" viewBox="0,0,69.04257,90.28516"><g transform="translate(-204.91554,-144.161)"><g stroke-miterlimit="10"><text transform="translate(205.34476,230.58321) scale(0.3679,0.3679)" font-size="40" xml:space="preserve" fill="#ffffff" stroke="none" stroke-width="1" font-family="Pixel" font-weight="normal" text-anchor="start"><tspan x="0" dy="0">Unknown</tspan></text><path d="M209.96587,210.57778c0,-11.24438 0,-39.70052 0,-46.17685c0,-2.56132 2.49286,-5.05418 5.05418,-5.05418c6.43267,0 34.54981,0 45.94711,0c2.98607,0 4.82445,2.2375 4.82445,4.59471c0,6.42426 0,36.48956 0,47.32552c0,2.44042 -1.37796,3.90551 -2.98656,3.90551c-5.52318,0 -37.23798,0 -48.70394,0c-2.58039,0 -4.13524,-1.74436 -4.13524,-4.59471z" fill="#000000" stroke="#000000" stroke-width="2"/><text transform="translate(223.29054,208.91311) scale(1.28222,1.28222)" font-size="40" xml:space="preserve" fill="#ffffff" stroke="none" stroke-width="1" font-family="Pixel" font-weight="normal" text-anchor="start"><tspan x="0" dy="0">?</tspan></text></g></g></svg>