<svg version="1.1" xmlns="http://www.w3.org/2000/svg" xmlns:xlink="http://www.w3.org/1999/xlink" width="57" height="57.66667" viewBox="0,0,57,57.66667"><g transform="translate(-211.5,-151.16666)"><g stroke-miterlimit="10"><path d="M212.5,207.83333v-55.66667h55v55.66667z" fill="#a0522d" stroke="#000000" stroke-width="2"/><path d="M238.61191,199.56072c-1.11859,-1.98857 0.63895,-3.78784 0.6875,-5.68034c0.06143,-2.39415 -0.4136,-4.85483 -1.0858,-7.15108c-0.69121,-2.36121 -1.22921,-5.28122 -2.46884,-7.33768c-0.53633,-0.88973 -1.96636,-1.42053 -2.44168,-2.28336c-0.84192,-1.52831 0.36406,-3.58669 1.95656,-3.91312c2.17968,-0.44678 4.33608,2.81662 5.10622,4.25833c2.46841,4.62091 3.94911,11.44349 3.94911,16.71749c0,0.35797 -0.64485,3.19905 -1.06069,4.61504c-0.03936,0.2045 -0.10364,0.40014 -0.18956,0.58362c-0.39865,0.85137 -1.26311,1.4411 -2.26532,1.4411c-0.81357,0 -1.53638,-0.38863 -1.99291,-0.99036c-0.07451,-0.07697 -0.14011,-0.16278 -0.19459,-0.25964z" fill="#000000" stroke="none" stroke-width="0.5"/><path d="M241.88998,156.939c0.63286,0.26403 1.05976,0.78307 1.28032,1.38826c0.92484,0.19194 1.53225,1.17969 2.28716,1.20596c3.22422,0.11223 5.91571,-2.13608 7.71399,2.06562c1.95684,4.57217 6.76566,-2.30086 8.87796,0.12437c1.4418,1.65541 1.13893,5.40106 -1.10802,6.61193c-0.66828,0.36014 0.2389,1.69176 -0.26186,2.26232c-0.43176,0.49193 -2.84203,1.53808 -2.96296,1.82581c-0.44378,1.05589 -0.74634,0.93426 -1.77809,1.40914c-0.5087,0.23414 -1.07912,1.98821 -1.45911,2.45591c-2.31008,2.84318 -6.58057,3.26745 -9.59257,2.65975c-0.0064,-0.00129 -0.26296,0.45105 -0.31963,0.53041c-0.85524,1.19787 -2.96872,1.38409 -4.31421,1.50711c-0.31925,0.02919 -9.32239,-1.66514 -9.95355,-1.82294l-0.29366,0.07342c-1.33476,0 -2.11711,0.1089 -3.30634,-0.52536c-0.81849,-0.43653 -1.22579,-1.92766 -1.93632,-2.17464c-1.44495,-0.50226 -3.43828,0.49865 -4.86123,-0.52904c-1.41134,-1.0193 -0.58497,-2.59076 -1.40587,-3.70087c-3.11465,-4.21199 -2.39266,-8.90814 1.53565,-12.26321c2.35823,-2.01411 4.54137,-1.04416 7.2668,-1.23393c2.19539,-0.15287 4.26503,-0.2654 6.29547,-0.34551c1.5174,-1.71423 5.71867,-2.59978 8.29606,-1.52451z" fill="#3dd846" stroke="none" stroke-width="0.5"/></g></g></svg>