<svg version="1.1" xmlns="http://www.w3.org/2000/svg" xmlns:xlink="http://www.w3.org/1999/xlink" width="99.4967" height="56.92115" viewBox="0,0,99.4967,56.92115"><g transform="translate(-177.3059,-157.25001)"><g stroke-miterlimit="10"><path d="M241.52956,174.91966c0,-9.46387 7.89614,-17.13585 17.63652,-17.13585c9.74038,0 17.63652,7.67198 17.63652,17.13585c0,9.46387 -7.89614,17.13585 -17.63652,17.13585c-9.74038,0 -17.63652,-7.67198 -17.63652,-17.13585z" fill="#000000" stroke="#000000" stroke-width="0" stroke-linecap="butt"/><path d="M243.67106,174.74188c0,-8.38901 6.99934,-15.18966 15.63346,-15.18966c8.63412,0 15.63346,6.80064 15.63346,15.18966c0,8.38902 -6.99934,15.18967 -15.63346,15.18967c-8.63412,0 -15.63346,-6.80066 -15.63346,-15.18966z" fill="#ffffff" stroke="#000000" stroke-width="0" stroke-linecap="butt"/><path d="M177.3059,174.88653c0,-9.74038 7.89614,-17.63652 17.63652,-17.63652c9.74038,0 17.63652,7.89614 17.63652,17.63652c0,9.74038 -7.89614,17.63652 -17.63652,17.63652c-9.74038,0 -17.63652,-7.89614 -17.63652,-17.63652z" fill="#000000" stroke="#000000" stroke-width="0" stroke-linecap="butt"/><path d="M210.40833,189.30508l-29.84655,22.44658l10.11329,-21.45991z" fill="#000000" stroke="#000000" stroke-width="1.5" stroke-linecap="round"/><path d="M179.30896,174.88653c0,-8.63412 6.99934,-15.63346 15.63346,-15.63346c8.63412,0 15.63346,6.99934 15.63346,15.63346c0,8.63412 -6.99934,15.63346 -15.63346,15.63346c-8.63412,0 -15.63346,-6.99934 -15.63346,-15.63346z" fill="#ffffff" stroke="#000000" stroke-width="0" stroke-linecap="butt"/><path d="M208.7302,188.93553c0,0 -15.78966,11.87487 -19.99777,15.03965c-1.9409,1.45969 -4.25414,3.1994 -4.25414,3.1994l8.21759,-17.43732z" fill="#ffffff" stroke="#ffffff" stroke-width="1.5" stroke-linecap="round"/><path d="M259.02069,158.35662v32.66993h-64.78372v-32.66993z" fill="#ffffff" stroke="#000000" stroke-width="2" stroke-linecap="butt"/><path d="M193.65193,159.227c0.05202,0.05202 0.07342,0.10404 0.07773,0.15156c0.73725,-0.10359 1.4624,-0.14803 2.15456,0.07863l0.02132,-0.0853l0.41622,0.10405c0.11133,0.02526 0.19444,0.12483 0.19444,0.2438c0,0.13807 -0.11193,0.25 -0.25,0.25h-0.26331c-0.13185,0 -0.28203,0.01426 -0.44374,0.03594c0.13487,0.04169 0.26658,0.08967 0.39409,0.14489l0.03211,-0.08564l0.41583,0.15593c0.06496,0.02264 0.11772,0.07134 0.14575,0.13357c0.07621,0.01949 0.15153,0.04106 0.22584,0.06489l0.00849,-0.05094l0.31191,0.05199c0.1205,0.0179 0.21295,0.12179 0.21295,0.24727c0,0.10731 -0.06761,0.19883 -0.16256,0.23428l-0.2579,0.10316l-0.00382,-0.00954l-0.02167,0.01818c-0.4174,0.07127 -0.84039,0.15073 -1.26553,0.2218c0.15618,0.27704 0.27132,0.57799 0.32986,0.87067c0.07956,0.15973 0.13148,0.33565 0.14948,0.52149c0.82248,2.30294 1.65499,10.62276 0.78401,12.7255c-0.01844,0.04453 -0.03619,0.09143 -0.05339,0.14045c0.68401,1.59765 0.13872,3.76128 0.11902,8.45028c-0.00703,1.6739 -0.75517,4.26083 0.56013,5.59623c0.80818,0.82053 7.68784,-2.06275 8.81548,0.48008c0.15886,-0.12324 0.3222,-0.24875 0.48042,-0.40769c0,0 0.14054,-0.14054 0.2963,-0.04569c0.37013,-0.19414 0.74283,-0.36813 0.99434,-0.5568l0.20862,-0.15647c0.04212,-0.03231 0.09483,-0.05152 0.15202,-0.05152c0.13807,0 0.25,0.11193 0.25,0.25v0.26331h-0.18441l-0.00239,0.00179c-0.01593,0.04229 -0.03463,0.08451 -0.05588,0.12663c0.05193,0.04581 0.08469,0.11285 0.08469,0.18755c0,0.03483 -0.00712,0.06799 -0.01999,0.09811l-0.10322,0.25804c-0.39227,0.9786 -1.31225,1.26099 -2.11119,1.75447l-0.01936,0.02918c0,0 -0.07734,0.11601 -0.20315,0.117c-0.03133,0.02202 -0.06235,0.04453 -0.09303,0.06759c-0.53587,0.21435 -0.86899,0.29556 -1.04644,0.28006c-2.01193,0.37508 -5.41322,-0.35573 -6.43587,0.18256c-0.64974,0.342 -2.18661,-0.6061 -2.19903,0.12804c-0.01772,1.04813 0.20393,3.39657 -1.60532,3.27179c-3.40488,-0.23482 -1.41442,-8.19435 -1.65798,-10.98303c-0.26325,-3.01407 -10.55576,-5.72604 -0.6353,-11.39487c0.03714,-0.06293 0.07874,-0.12291 0.12437,-0.1795c-0.65383,-3.9275 -1.22947,-6.25057 0.4879,-9.28828c0.41021,-0.7256 -0.72418,-2.17882 -0.10543,-3.10695c0.02215,-0.03322 0.04444,-0.06524 0.06687,-0.09608c-0.11428,-0.00615 -0.20986,-0.00981 -0.28155,-0.00981h-0.26331c-0.13807,0 -0.25,-0.11193 -0.25,-0.25c0,-0.13237 0.10287,-0.24071 0.23302,-0.24943l0.49633,-0.03818l0.00273,0.03548c0.09842,-0.00183 0.19808,-0.00473 0.29877,-0.00835c0.0244,-0.00354 0.04884,-0.00692 0.0733,-0.01014c-0.05633,-0.0038 -0.11088,-0.00591 -0.16337,-0.00599h-0.05885v0c-0.13057,0 -0.23776,-0.1001 -0.24902,-0.22774c-0.09305,-0.0364 -0.15896,-0.12696 -0.15896,-0.23291c0,-0.10731 0.06761,-0.19883 0.16256,-0.23428l0.2579,-0.10316l0.00038,0.00096c0.04956,-0.04405 0.10043,-0.08654 0.15311,-0.12682l0.07855,-0.0821c0,0 0.17678,-0.17678 0.35355,0z" fill="#ffffff" stroke="none" stroke-width="0.5" stroke-linecap="butt"/><path d="M255.98296,160.53571c0,0 -0.25,0 -0.25,-0.25c0,-0.25 0.25,-0.25 0.25,-0.25c0.24326,0.00124 0.48753,-0.01205 0.7324,-0.03425c-0.05336,-0.04585 -0.08716,-0.11383 -0.08716,-0.1897c0,-0.10731 0.06761,-0.19883 0.16256,-0.23428l0.2579,-0.10316l0.00715,0.01787l0.03842,-0.03124c0.15971,-0.00157 0.65356,0.05496 1.17278,0.1377c0.27059,-0.00068 0.52995,0.00112 0.70369,-0.02084c0.02949,-0.02648 0.1891,-0.1551 0.34871,0.00452c0.0319,0.0319 0.05229,0.0638 0.06428,0.09466c0.11292,-0.00594 0.22567,-0.00943 0.33822,-0.0099h0.26331v0c0.13807,0 0.25,0.11193 0.25,0.25c0,0.08283 -0.04028,0.15625 -0.10233,0.20175l-0.20832,0.15624l-0.0719,-0.09587c-0.06325,0.03883 -0.12769,0.06989 -0.19323,0.09418c1.01237,0.68414 1.55545,2.2256 1.1722,3.75863c0.48907,0.45633 0.79485,1.10658 0.79485,1.82825c0,0.67483 -0.26737,1.2872 -0.70196,1.73697c0.94731,6.2151 0.009,18.91386 -0.01342,19.86748c-0.01553,0.66073 -0.23926,1.28796 -0.66201,1.74888c0.00607,0.00526 0.01215,0.01092 0.01822,0.017c0.17678,0.17678 0,0.35355 0,0.35355l-0.18834,0.12248c-0.08338,0.01389 -0.16672,0.0281 -0.24996,0.04282c0.02381,0.03828 0.03757,0.08347 0.03757,0.13187c0,0.13807 -0.11193,0.25 -0.25,0.25h-0.26331c-0.19805,0 -0.39735,-0.01058 -0.597,-0.02857c-0.89575,0.31437 -2.22197,0.65704 -2.18041,-0.12899c0.00409,-0.07736 0.02167,-0.14592 0.05096,-0.2064c-0.40583,-0.06475 -0.79883,-0.11157 -1.17048,-0.11c0,0 -0.25,0 -0.25,-0.25c0,-0.25 0.25,-0.25 0.25,-0.25c0.37871,0.00193 0.77037,0.04908 1.17101,0.11295c-0.45796,-0.46545 -0.70055,-1.11735 -0.71625,-1.80561c-0.0976,-4.27817 -0.588,-8.61345 0.09747,-12.83748c0.1154,-0.7111 -0.4756,-5.3638 -0.47731,-7.98389c-0.03239,-0.1606 -0.04939,-0.32678 -0.04939,-0.49693c0,-0.28423 0.04743,-0.55737 0.13481,-0.81196c0.0416,-0.1212 0.09225,-0.23819 0.15115,-0.35017c-0.35054,-1.58195 -0.25367,-3.24148 0.45577,-3.95092c0.21878,-0.21878 0.43608,-0.40244 0.65041,-0.55373c-0.29805,0.03277 -0.59531,0.05483 -0.89105,0.05608z" fill="#ffffff" stroke="none" stroke-width="0.5" stroke-linecap="butt"/><text transform="translate(184.00355,180.42339) scale(0.36923,0.36923)" font-size="40" xml:space="preserve" fill="#000000" stroke="none" stroke-width="1" stroke-linecap="butt" font-family="Pixel" font-weight="normal" text-anchor="start"><tspan x="0" dy="0">Collecting...</tspan></text></g></g></svg>