<svg version="1.1" xmlns="http://www.w3.org/2000/svg" xmlns:xlink="http://www.w3.org/1999/xlink" width="301.98672" height="107.74937" viewBox="0,0,301.98672,107.74937"><g transform="translate(-77.5,-100.64102)"><g stroke="none" stroke-miterlimit="10"><path d="M77.5,207.17948v-106.53846h301.98672v106.53846z" fill="none" stroke-width="0"/><path d="M225.51985,184.14126c-1.04537,-1.96006 0.11054,-6.44688 3.21435,-4.67327c1.53297,0.87598 1.75257,2.13588 3.74637,3.08612c0.45631,0.21748 1.67686,0.5351 2.89165,0.89499c-0.46809,-3.72197 2.74635,-9.87702 2.3414,-12.15617c-0.0963,-0.54198 -6.22088,-1.95576 -6.47994,-2.00996c-2.45958,-0.51463 -4.66859,-2.12518 -5.07786,-4.67553c-0.29968,-1.86747 1.27627,-2.30674 1.99269,-3.58109c0.69317,-1.23298 0.2949,-2.93743 1.48426,-3.95688c2.28041,-1.95463 14.67337,0.69746 16.71426,2.79041c1.71264,1.75634 2.09225,6.32148 0.84678,9.10128c-0.39991,0.89259 -3.71738,1.3511 -4.46206,1.72345c-1.20636,0.60318 -2.09663,8.82973 -2.20117,12.9468c1.55084,-0.27214 3.27823,-0.26567 4.71083,-1.05915c1.69705,-0.93995 2.35857,-3.20216 4.35331,-3.64544c1.9989,-0.4442 4.18082,1.72844 2.99026,3.7127c-1.77527,2.95879 -6.58852,5.68881 -9.82547,6.00933c-0.27776,0.0275 -0.74094,0.12647 -1.26194,0.21938c0.36174,2.36694 0.48795,4.88677 1.14961,6.91841c0.44417,1.36382 1.57116,4.9691 3.08684,5.35149c2.05987,0.51968 8.5525,0.23508 9.1613,3.19606c0.47807,2.32516 0.54679,3.07867 -1.95656,3.91312c-0.97091,0.32364 -2.63075,-1.1363 -3.47664,-1.61997c-1.82162,-1.04159 -4.899,0.22402 -6.72449,-1.34068c-1.71438,-1.46947 -2.81574,-3.16435 -3.59957,-4.99702c-0.56554,2.05414 -1.44215,3.95255 -2.82309,5.4771c-1.45154,1.6025 -9.24203,3.67819 -10.1987,2.00402l-1.23117,-2.15454c0.79841,-1.39722 2.06298,-2.002 3.39141,-2.3364c2.51015,-0.63188 5.24831,-0.29839 5.50033,-2.52168c0.21389,-1.88693 1.19422,-3.70442 1.27382,-5.59765c0.08054,-1.9158 -0.06026,-4.1405 -0.02202,-6.26667c-3.69334,-0.9924 -8.91112,-3.63187 -9.50881,-4.75255z" fill="#000000" stroke-width="0.5"/><path d="M230.19894,162.75916c0,-1.38071 1.11929,-2.5 2.5,-2.5c1.38071,0 2.5,1.11929 2.5,2.5c0,1.38071 -1.11929,2.5 -2.5,2.5c-1.38071,0 -2.5,-1.11929 -2.5,-2.5z" fill="#ffffff" stroke-width="0.5"/><path d="M239.55588,163.91433c0,-1.38071 1.11929,-2.5 2.5,-2.5c1.38071,0 2.5,1.11929 2.5,2.5c0,1.38071 -1.11929,2.5 -2.5,2.5c-1.38071,0 -2.5,-1.11929 -2.5,-2.5z" fill="#ffffff" stroke-width="0.5"/></g></g></svg>