<svg version="1.1" xmlns="http://www.w3.org/2000/svg" xmlns:xlink="http://www.w3.org/1999/xlink" width="57.14059" height="106.13671" viewBox="0,0,57.14059,106.13671"><g transform="translate(-215.54695,-124.08333)"><g stroke="none" stroke-width="0.5" stroke-miterlimit="10"><path d="M222.92717,209.46486c0.26581,3.1262 0.6493,6.25675 0.87508,9.39214c0.1132,1.57212 0.00134,3.15239 0.01027,4.72856c0.00913,1.61053 1.49367,4.11208 0.4375,5.62277c-0.99253,1.41966 -3.378,1.27634 -4.375,0c-1.42333,-1.82212 -1.03531,-8.56128 -1.0625,-10.01159c-0.08384,-4.472 -0.96596,-8.93683 -1.10564,-13.41096c-0.08944,-2.86467 -2.02664,-7.05478 -0.23488,-8.91361l-0.12547,-0.75283l0.01666,-0.20828l-0.05068,-0.20272v-0.54309l-0.09098,-0.54591l0.01666,-0.20828l-0.05068,-0.20272v-4.00245l-0.07645,-0.38226l0.01184,-0.24872l-0.06039,-0.24157v-0.91809l-0.09098,-0.54591l0.01666,-0.20828l-0.05068,-0.20272v-3.54309l-0.09098,-0.54591l0.01666,-0.20828l-0.05068,-0.20272v-3.07233l-0.09987,-0.69912l0.01852,-0.17898l-0.04364,-0.17457v-4.37745l-0.07645,-0.38226l0.01184,-0.24872l-0.06039,-0.24157v-2.32233l-0.09987,-0.69912l0.01852,-0.17898l-0.04364,-0.17457v-2.54309l-0.09098,-0.54591l0.01666,-0.20828l-0.05068,-0.20272v-30.48654l-0.10971,-0.98738l0.01886,-0.1395l-0.03414,-0.13658v-1.66276l-0.22132,-0.1897l-0.00547,-0.09857l-0.08571,-0.04898l-0.3125,-1.25v-0.08688l-0.01558,-0.02337l0.01558,-0.0701v-0.06966l0.13932,-0.55728l0.12461,-0.56075l0.03116,-0.06231l0.01741,-0.06966l0.02438,-0.01393l0.05205,-0.1041l0.13284,-0.15498l0.00691,-0.12454l0.09857,-0.08449c0.01627,-0.38626 0.12018,-0.74985 0.29236,-1.0714l0.01789,-0.07157l0.03296,-0.01883c0.43488,-0.73686 1.23699,-1.23116 2.15454,-1.23116c0.10515,0 0.20878,0.00649 0.31052,0.01909l0.41796,-0.73143l0.25376,-0.93042l0.32923,-0.08979l0.18854,-0.32994l1.25,-0.3125h1.44224l0.20143,-0.05036h0.10189l0.09345,-0.04063l0.75,-0.125l0.20829,0.01667l0.20271,-0.05068h1.00245l0.38226,-0.07645l0.24872,0.01185l0.24157,-0.06039h6.8866l1.26207,-0.11473l0.11421,0.01777l0.11213,-0.02804h2.55882l1.43604,-0.22093l0.09649,0.00893l0.09192,-0.03064l1.625,-0.125l0.09664,0.01641l0.0951,-0.02378h4.125l0.11213,0.02804l0.11421,-0.01777l1.26207,0.11473h1.51159l0.07745,0.01936l0.0785,-0.01449l1.99543,0.12471l2.12043,0.12473l0.04431,0.01389l0.04591,-0.00694l2.61966,0.24949l0.45668,0.04151l0.12414,-0.05227l0.11448,0.0495l0.02601,-0.0065l0.01102,-0.00899l0.01006,0.00372l0.15094,-0.03773h0.25l0.72091,0.18023l0.88043,0.08004l0.00522,0.00182l0.00547,-0.00083l2.625,0.25l0.06509,0.02302l0.06873,-0.00662l2.5,0.375l0.03058,0.01271l0.03303,-0.00232l2.11327,0.37293l1.48826,0.24804l0.06284,0.02732l0.06849,-0.0018l0.8571,0.19047h0.22557l1.25,0.3125l0.34091,0.59659l0.59659,0.34091l0.13149,0.52599l0.00666,0.00499l0.00509,0.04198l0.16926,0.67704v0.25l-0.03832,0.15326l0.01901,0.15683l-0.1057,0.84556v0.46935l-0.03415,0.13658l0.01886,0.1395l-0.10971,0.98738v0.86154l-0.05068,0.20272l0.01666,0.20828l-0.09098,0.54591v1.54309l-0.07464,0.29857v0.30777l-0.05036,0.20143v4.30378l0.35971,3.23738l-0.01886,0.13951l0.03415,0.13657v0.9181l0.21598,1.29591l-0.00834,0.10431l0.03372,0.09907l0.1189,1.42678l0.23771,1.66397l0.24795,1.61172l-0.00238,0.02572l0.00952,0.02401l0.25,1.875l-0.00119,0.01048l0.00381,0.00984l0.25,2l-0.01009,0.08326l0.02508,0.08002l0.11811,2.00775l0.23214,1.50892l-0.0106,0.11455l0.03481,0.10965l0.125,2l-0.01449,0.07851l0.01936,0.07744v17.54176l0.11907,1.78603l0.12457,1.74409l-0.01574,0.08973l0.02209,0.08838v1.16083l0.11865,1.66106l-0.01574,0.08973l0.02209,0.08838v1.0116l0.11473,1.26207l-0.01777,0.1142l0.02803,0.11213v0.98654l0.10971,0.98738l-0.01886,0.13951l0.03415,0.13657v4.62532l0.11259,1.12593l-0.01839,0.12561l0.03079,0.12315v1.75l-0.05068,0.20272l0.01666,0.20828l-0.09098,0.54591v0.29309l-0.11962,0.47849l0.0503,0.18443l-0.16527,0.27545l-0.07791,0.31163l-0.16598,0.09485l-0.25376,0.42292l-0.24942,0.24943c1.08687,6.82734 0.71872,14.51762 0.23166,20.9828c-0.15366,2.03968 0.54709,7.25 -2.75,7.25c-3.43932,0 -2.44164,-4.6959 -2.375,-6.75c0.22029,-6.79017 0.78405,-14.10457 -0.22526,-21h-6.64974l-0.12315,-0.03078l-0.12561,0.01838l-1.25,-0.125l-0.01331,-0.00477l-0.01401,0.00189l-0.98739,-0.10971h-1.11154l-0.12315,-0.03078l-0.12561,0.01838l-2.37593,-0.23759h-1.12531l-0.11213,-0.02803l-0.11421,0.01777l-1.35771,-0.12343l-1.60769,-0.12366l-0.12451,-0.04151l-0.13097,0.00854l-1.15321,-0.20968h-1.02457l-0.20271,-0.05067l-0.20829,0.01666l-1.29591,-0.21599h-1.16809l-0.13657,-0.03414l-0.13951,0.01885l-1.11134,-0.12348l-1.11226,-0.11123h-1.12531l-0.13657,-0.03414l-0.13951,0.01885l-1.07021,-0.11891l-1.73694,-0.1158h-0.16676l-0.2671,-0.06677l-0.27523,0.00724l-0.8571,-0.19047h-0.85057l-0.33829,-0.08457l-0.34851,-0.01162l-0.68961,-0.19703l-0.79169,-0.09896l-1.10799,-0.12311l-0.01651,-0.00614l-0.01749,0.00212l-0.84556,-0.10569h-4.26245l-0.54591,0.09099l-0.20829,-0.01666l-0.20271,0.05067h-0.4693l-0.36513,0.12171l-0.4007,0.03082l-0.37877,0.09469l-0.12435,0.0829l-0.40291,0.1439l-0.08936,0.04765c0.39469,2.88041 -0.56506,6.38013 -0.27982,9.73485z" fill="#a96517"/><path d="M225.61748,193.58073c4.99082,4.53984 4.26452,12.95646 6.50754,18.6276c0.68579,1.73392 1.55194,4.84527 -0.44447,5.98607c-0.99406,0.56803 -3.23134,-0.40023 -3.47911,-1.36803c-1.07502,-4.19919 -1.53892,-8.54656 -2.94788,-12.60385c-0.93203,-2.68389 -2.74224,-5.13708 -3.6693,-7.91825c-0.09499,-0.2642 -0.14675,-0.54903 -0.14675,-0.84593c0,-1.38071 1.11929,-2.5 2.5,-2.5c0.19231,0 0.37955,0.02172 0.55939,0.06283c0.39186,0.06777 0.77594,0.24608 1.12056,0.55957z" fill="#a96517"/><path d="M267.75002,198.95833c0.03771,0.06705 0.06793,0.14041 0.091,0.21972c0.14228,0.31416 0.2215,0.66296 0.2215,1.03028c0,0.76241 -0.34128,1.44511 -0.87941,1.90367c-1.73523,3.85876 -6.09926,9.66541 -7.11721,11.67976c-0.93343,1.8471 -0.89247,4.85843 -2.85584,5.51289c-2.23607,0.74535 -3.16776,0.27951 -3.91312,-1.95656c-0.35863,-1.07591 2.30542,-5.82151 2.40451,-6.00778c0.83552,-1.57064 6.65455,-11.79968 7.70653,-12.40081c0.43488,-0.73685 1.23699,-1.23117 2.15454,-1.23117c0.81357,0 1.53638,0.38863 1.99291,0.99036c0.07451,0.07697 0.14011,0.16278 0.19459,0.25964z" fill="#a96517"/><path d="M230.72828,131.85623c0.54739,0 0.54739,0.54739 0.54739,0.54739l-0.00423,0.41065c0.28294,2.26347 0.2903,4.72446 -0.36025,6.92338c-0.26236,0.88679 -0.64639,1.93358 -1.50688,2.38284c-1.22755,0.64091 -2.81964,0.39036 -4.10158,0.10358c-0.8196,-0.32566 -1.85327,-0.57147 -2.56344,-1.11345c-1.36689,-1.04316 -1.54652,-2.46365 -1.90958,-4.00088c-0.1998,-0.84599 -0.47262,-1.67371 -0.42377,-2.5525c0.035,-0.62956 0.20736,-1.17627 0.20403,-1.81181c0,0 0,-0.54739 0.54739,-0.54739c0.54739,0 0.54739,0.54739 0.54739,0.54739c-0.0029,0.66081 -0.1652,1.23025 -0.20614,1.87983c-0.04775,0.7576 0.22536,1.50263 0.39659,2.23295c0.30132,1.2852 0.37054,2.49678 1.50861,3.38238c0.59472,0.46278 1.53199,0.65938 2.22201,0.93746c0.78151,0.1722 1.51234,0.26791 2.30917,0.18387c0.39647,-0.04181 1.00499,-0.07717 1.28331,-0.42664c0.42755,-0.53686 0.61932,-1.44276 0.77213,-2.09453c0.4454,-1.89961 0.43692,-3.95275 0.19468,-5.8907l-0.00423,-0.54644c0,0 0,-0.54739 0.54739,-0.54739z" fill="#000000"/><path d="M229.37734,132.33854c0.19429,-0.10707 0.39227,-0.16569 0.57596,-0.07982c0.35027,0.16374 0.29691,1.33414 0.29691,1.71727c0,2.10465 0.30514,4.45919 -0.31616,6.48326c-0.1609,0.10206 -0.33156,0.18631 -0.50586,0.2639c-0.02499,0.08378 -0.06254,0.16128 -0.12004,0.22823c-0.18612,0.21672 -0.48677,0.30054 -0.77622,0.36373c-0.09227,0.07086 -0.20777,0.11299 -0.33311,0.11299c-0.03263,0 -0.0646,-0.00286 -0.09566,-0.00833c-0.62697,0.18429 -1.19451,-0.05527 -1.81805,-0.13263c-1.40815,-0.17469 -2.99566,-0.58563 -3.92203,-1.78326c-0.56866,-0.73517 -0.55736,-1.56054 -0.71834,-2.41939c-0.08353,-0.44564 -0.26904,-0.78744 -0.14604,-1.26269v-0.61527c0,-0.05861 0.00922,-0.11507 0.02627,-0.168c-0.01657,-0.13608 -0.02774,-0.23305 -0.02622,-0.23542c0.00439,-0.00689 0.0091,-0.01336 0.01407,-0.01945c-0.00315,-0.01362 -0.0058,-0.02744 -0.00792,-0.04143l-0.00348,-0.00035l0.00144,-0.01444c-0.00057,-0.00463 -0.00109,-0.00928 -0.00154,-0.01394l-0.06522,-0.58697c-0.09808,-0.4523 -0.14046,-0.91831 -0.14249,-1.3811c0,0 0,-0.54739 0.54739,-0.54739c0.10934,0 0.19685,0.02184 0.26687,0.0568c0.00406,-0.00337 0.00817,-0.00665 0.01234,-0.00986c0.4367,-0.33581 1.24477,0.0775 1.67593,0.16917c1.28275,0.27275 2.73994,0.0118 4.02685,-0.1467c0.23797,0 1.35276,-0.01659 1.55435,0.07107zM224.99329,139.14656c0.00081,-0.00362 0.00161,-0.00724 0.00241,-0.01086l-0.02829,0.04527c0.00704,-0.00042 0.01408,-0.00084 0.02112,-0.00124l0.00095,-0.00763l0.01248,0.00156zM229.16196,138.16614c-0.00155,0.0107 -0.00311,0.02139 -0.00468,0.03208c0.00129,0.00104 0.00258,0.00209 0.00387,0.00314c0.00028,-0.01174 0.00054,-0.02348 0.00081,-0.03523z" fill="#e5bf6c"/><path d="M242.03781,131.97528c0.54739,0 0.54739,0.54739 0.54739,0.54739l-0.00423,0.41065c0.28294,2.26347 0.29031,4.72446 -0.36024,6.92338c-0.26236,0.88679 -0.6464,1.93358 -1.50689,2.38284c-1.22755,0.64091 -2.81963,0.39036 -4.10158,0.10359c-0.8196,-0.32566 -1.85327,-0.57147 -2.56344,-1.11345c-1.36689,-1.04316 -1.54651,-2.46366 -1.90957,-4.00089c-0.1998,-0.84599 -0.47262,-1.67371 -0.42377,-2.5525c0.035,-0.62956 0.20736,-1.17627 0.20403,-1.8118c0,0 0,-0.54739 0.54739,-0.54739c0.54739,0 0.54739,0.54739 0.54739,0.54739c-0.0029,0.66081 -0.1652,1.23025 -0.20614,1.87983c-0.04775,0.7576 0.22536,1.50263 0.39659,2.23295c0.30132,1.2852 0.37053,2.49678 1.5086,3.38238c0.59472,0.46278 1.53199,0.65939 2.22201,0.93747c0.78151,0.1722 1.51234,0.2679 2.30917,0.18386c0.39647,-0.04181 1.00499,-0.07716 1.28331,-0.42664c0.42755,-0.53686 0.61932,-1.44276 0.77213,-2.09453c0.4454,-1.89961 0.43692,-3.95275 0.19467,-5.8907l-0.00423,-0.54644c0,0 0,-0.54739 0.54739,-0.54739z" fill="#000000"/><path d="M240.68687,132.45759c0.19429,-0.10707 0.39227,-0.16569 0.57596,-0.07982c0.35027,0.16374 0.29692,1.33414 0.29692,1.71727c0,2.10465 0.30514,4.45919 -0.31616,6.48326c-0.1609,0.10206 -0.33156,0.18631 -0.50586,0.2639c-0.02499,0.08378 -0.06255,0.16128 -0.12005,0.22824c-0.18612,0.21672 -0.48677,0.30054 -0.77621,0.36372c-0.09227,0.07086 -0.20777,0.11299 -0.33311,0.11299c-0.03263,0 -0.0646,-0.00286 -0.09566,-0.00833c-0.62697,0.18429 -1.19451,-0.05527 -1.81805,-0.13262c-1.40815,-0.17469 -2.99567,-0.58563 -3.92203,-1.78326c-0.56866,-0.73517 -0.55735,-1.56054 -0.71834,-2.41939c-0.08353,-0.44564 -0.26904,-0.78744 -0.14604,-1.2627v-0.61527c0,-0.05861 0.00921,-0.11506 0.02626,-0.168c-0.01657,-0.13608 -0.02774,-0.23305 -0.02622,-0.23543c0.00439,-0.00689 0.0091,-0.01336 0.01407,-0.01945c-0.00315,-0.01362 -0.00581,-0.02744 -0.00792,-0.04143l-0.00347,-0.00034l0.00144,-0.01444c-0.00057,-0.00463 -0.00109,-0.00928 -0.00154,-0.01394l-0.06522,-0.58697c-0.09808,-0.4523 -0.14045,-0.9183 -0.14249,-1.38109c0,0 0,-0.54739 0.54739,-0.54739c0.10934,0 0.19685,0.02184 0.26687,0.0568c0.00406,-0.00337 0.00817,-0.00665 0.01234,-0.00986c0.4367,-0.33581 1.24477,0.0775 1.67593,0.16917c1.28275,0.27275 2.73994,0.01181 4.02685,-0.14669c0.23797,0 1.35276,-0.01659 1.55435,0.07107zM236.30282,139.26561c0.00081,-0.00362 0.00161,-0.00724 0.00241,-0.01086l-0.0283,0.04527c0.00704,-0.00042 0.01408,-0.00084 0.02112,-0.00124l0.00096,-0.00763l0.01247,0.00156zM240.47148,138.28519c-0.00155,0.0107 -0.00311,0.02139 -0.00468,0.03208c0.00129,0.00104 0.00258,0.00209 0.00387,0.00315c0.00028,-0.01174 0.00054,-0.02349 0.00081,-0.03523z" fill="#e5bf6c"/><path d="M254.41876,132.68956c0.54739,0 0.54739,0.54739 0.54739,0.54739l-0.00423,0.41065c0.28294,2.26347 0.2903,4.72446 -0.36025,6.92338c-0.26236,0.88679 -0.64639,1.93358 -1.50688,2.38284c-1.22755,0.64091 -2.81964,0.39036 -4.10158,0.10358c-0.8196,-0.32566 -1.85327,-0.57147 -2.56344,-1.11345c-1.36689,-1.04316 -1.54652,-2.46365 -1.90958,-4.00088c-0.1998,-0.84599 -0.47262,-1.67371 -0.42377,-2.5525c0.035,-0.62956 0.20736,-1.17627 0.20403,-1.81181c0,0 0,-0.54739 0.54739,-0.54739c0.54739,0 0.54739,0.54739 0.54739,0.54739c-0.0029,0.66081 -0.1652,1.23025 -0.20614,1.87983c-0.04775,0.7576 0.22536,1.50263 0.39659,2.23295c0.30132,1.2852 0.37054,2.49678 1.50861,3.38238c0.59472,0.46278 1.53199,0.65938 2.22201,0.93746c0.78151,0.1722 1.51234,0.26791 2.30917,0.18387c0.39647,-0.04181 1.00499,-0.07717 1.28331,-0.42664c0.42755,-0.53686 0.61932,-1.44276 0.77213,-2.09453c0.4454,-1.89961 0.43692,-3.95275 0.19468,-5.8907l-0.00423,-0.54644c0,0 0,-0.54739 0.54739,-0.54739z" fill="#000000"/><path d="M253.06782,133.17187c0.19429,-0.10707 0.39227,-0.16569 0.57596,-0.07982c0.35027,0.16374 0.29691,1.33414 0.29691,1.71727c0,2.10465 0.30514,4.45919 -0.31616,6.48326c-0.1609,0.10206 -0.33156,0.18631 -0.50586,0.2639c-0.02499,0.08378 -0.06254,0.16128 -0.12004,0.22823c-0.18612,0.21672 -0.48677,0.30054 -0.77622,0.36373c-0.09227,0.07086 -0.20777,0.11299 -0.33311,0.11299c-0.03263,0 -0.0646,-0.00286 -0.09566,-0.00833c-0.62697,0.18429 -1.19451,-0.05527 -1.81805,-0.13263c-1.40815,-0.17469 -2.99566,-0.58563 -3.92203,-1.78326c-0.56866,-0.73517 -0.55736,-1.56054 -0.71834,-2.41939c-0.08353,-0.44564 -0.26904,-0.78744 -0.14604,-1.26269v-0.61527c0,-0.05861 0.00922,-0.11507 0.02627,-0.168c-0.01657,-0.13608 -0.02774,-0.23305 -0.02622,-0.23542c0.00439,-0.00689 0.0091,-0.01336 0.01407,-0.01945c-0.00315,-0.01362 -0.0058,-0.02744 -0.00792,-0.04143l-0.00348,-0.00035l0.00144,-0.01444c-0.00057,-0.00463 -0.00109,-0.00928 -0.00154,-0.01394l-0.06522,-0.58697c-0.09808,-0.4523 -0.14046,-0.91831 -0.14249,-1.3811c0,0 0,-0.54739 0.54739,-0.54739c0.10934,0 0.19685,0.02184 0.26687,0.0568c0.00406,-0.00337 0.00817,-0.00665 0.01234,-0.00986c0.4367,-0.33581 1.24477,0.0775 1.67593,0.16917c1.28275,0.27275 2.73994,0.0118 4.02685,-0.1467c0.23797,0 1.35276,-0.01659 1.55435,0.07107zM248.68377,139.97989c0.00081,-0.00362 0.00161,-0.00724 0.00241,-0.01086l-0.02829,0.04527c0.00704,-0.00042 0.01408,-0.00084 0.02112,-0.00124l0.00095,-0.00763l0.01248,0.00156zM252.85243,138.99947c-0.00155,0.0107 -0.00311,0.02139 -0.00468,0.03208c0.00129,0.00104 0.00258,0.00209 0.00387,0.00314c0.00028,-0.01174 0.00054,-0.02348 0.00081,-0.03523z" fill="#e5bf6c"/></g></g></svg>