<svg version="1.1" xmlns="http://www.w3.org/2000/svg" xmlns:xlink="http://www.w3.org/1999/xlink" width="596.01524" height="416" viewBox="0,0,596.01524,416"><defs><linearGradient x1="245.5" y1="-23.33334" x2="245.5" y2="390.66666" gradientUnits="userSpaceOnUse" id="color-1"><stop offset="0" stop-color="#32d916"/><stop offset="1" stop-color="#14c864"/></linearGradient></defs><g transform="translate(45.33868,24.33335)"><g stroke-miterlimit="10"><path d="M-22.5,390.66666v-414h536v414z" fill="url(#color-1)" stroke="#000000" stroke-width="2"/><path d="M-38.34732,57.58735l0.86009,-2.65627c-0.02674,-0.83617 -0.35542,-1.85753 -0.63728,-2.85019l-3.23107,-1.12902c0.08819,-1.93381 0.69772,-3.33411 1.53423,-4.34809c0.38999,-0.04091 0.77997,-0.08135 1.16993,-0.12135c0.01311,-0.3358 0.02677,-0.67224 0.03141,-0.99837c2.14116,-1.54167 4.75341,-1.54167 4.75341,-1.54167h1.11017c4.0525,0.00066 8.10928,-0.03557 12.16843,-0.10705c-1.14496,0.43411 -2.28789,0.86501 -3.42878,1.29075c-0.03092,0.01154 -0.06182,0.02317 -0.09271,0.03491c9.55162,-0.77864 19.10279,-1.42557 28.66407,-2.20414c2.0215,-0.10454 4.04261,-0.21698 6.06312,-0.33712c0.04206,-0.063 0.08484,-0.12564 0.12828,-0.18796c0.44947,-0.03983 0.89896,-0.08007 1.34849,-0.12075c6.218,-0.56279 12.43597,-1.37027 18.64732,-2.24074c0.91733,-0.75023 1.88695,-1.42622 2.93834,-1.98613c2.21693,-1.18062 4.65268,-1.79237 7.14382,-2.26012c-1.52101,1.11707 -3.02977,2.2525 -4.52818,3.41033c-0.15982,0.03811 -0.31968,0.07619 -0.47955,0.1142c0.13585,-0.01951 0.2717,-0.03902 0.40754,-0.05854c-0.67766,0.52407 -1.35321,1.05274 -2.02682,1.58639c0.28097,-0.02472 0.56191,-0.04959 0.84281,-0.07458c4.35114,-1.01452 8.69053,-2.0845 13.02448,-3.17956c0.64874,-0.08698 1.29734,-0.1728 1.94579,-0.25724c14.18897,-2.70865 28.12492,-4.89241 41.84552,-9.42058c2.14317,-0.70731 4.26942,-1.47358 6.40538,-2.20679c-0.05402,0.00643 -0.10803,0.01285 -0.16205,0.01928c0.07274,-0.01291 0.14587,-0.0259 0.21938,-0.03895c1.26716,-0.43458 2.53782,-0.85724 3.81754,-1.24876c-1.67623,-0.51071 -3.35684,-1.00471 -5.08365,-1.15184c-0.39792,-0.03391 -0.79607,-0.06039 -1.19442,-0.08041c-1.00453,0.04612 -2.00883,0.09606 -3.01268,0.15028c0.29211,-0.06733 0.58425,-0.1344 0.87644,-0.20121c-1.18238,-0.00002 -2.36604,0.04165 -3.55025,0.10004c-0.25362,0.1023 -0.50762,0.20372 -0.76198,0.3043c-5.12144,0.32997 -10.22427,0.78512 -15.27851,1.42561c-4.60698,0.58381 -9.30861,4.02448 -13.70177,2.51941c-1.1125,-0.38114 -0.93846,-1.55766 -0.45629,-2.92469c-1.0076,0.07029 -2.01487,0.14498 -3.02175,0.22437c-0.66938,0.42737 -1.33557,0.85549 -1.99873,1.28465l-2.62427,-0.88064c-3.84303,0.37085 -7.63483,0.82527 -11.40219,1.36388c-7.5042,2.52301 -14.97985,5.13821 -22.44553,7.82733c1.97697,-1.68308 3.96431,-3.31978 5.96695,-4.91719c-2.85593,0.59856 -5.72042,1.24641 -8.60529,1.94384c-9.65724,2.3347 -19.18992,5.8204 -28.58992,9.39142c-0.30945,-0.22033 -0.59383,-0.47858 -0.84798,-0.78128c-1.46828,-1.74871 -2.28196,-3.51973 -2.60097,-5.26911c4.68507,-0.76649 9.35184,-1.6163 14.013,-2.52583c-0.24405,-0.90659 -0.2495,-2.13124 -0.80542,-2.81166c-0.80175,-0.98129 -2.75755,-0.90132 -3.16894,-2.09985c-0.25073,-0.73044 1.43694,-0.5674 2.16538,-0.82388c1.07368,-0.37803 2.16646,-0.70028 3.23982,-1.07921c2.01352,-0.71084 4.01332,-1.45997 6.02003,-2.18983c2.31489,-0.84194 4.62957,-1.68156 6.94502,-2.5174c-3.02929,0.34257 -6.05805,0.69164 -9.08599,1.05039c-2.65212,0.87738 -5.37325,1.66311 -8.20979,2.37347l-3.17747,-0.82738c0.26066,-0.09118 0.52151,-0.1821 0.78254,-0.27275c-0.25416,-0.10068 -0.49338,-0.25705 -0.71466,-0.47978c-0.70829,-0.71292 -0.65371,-1.59254 -0.25012,-2.54842l-0.62213,-0.16418c0.24785,-0.23412 0.49454,-0.46127 0.73867,-0.68106c0.23006,-0.20713 0.45702,-0.40931 0.68105,-0.60671c0.46148,-0.7202 0.99728,-1.45664 1.45691,-2.17643c-1.97444,0.23007 -3.93217,0.26576 -5.80795,-0.28585c-0.79767,-0.23457 -1.55964,-0.5472 -2.29562,-0.91668c0.40817,-0.74211 0.82669,-1.47689 1.26747,-2.19596l-2.78794,-1.15694c1.2384,-1.42453 2.54796,-2.76679 4.08549,-3.84548c0.48425,-0.33974 1.00956,-0.59182 1.56096,-0.78871c-0.5695,-0.36927 -1.1442,-0.72624 -1.72786,-1.06196l0.96415,-0.60626c-0.89066,-1.02728 -1.69527,-2.04468 -1.84608,-2.98703l1.17999,-0.66713l-0.89186,-0.61746c0.03557,-0.05095 0.07442,-0.10152 0.11665,-0.1517c0.31891,-0.37895 0.68789,-0.65289 1.09625,-0.8451l-0.11561,-0.13146c2.3544,-0.52055 4.72584,-0.97445 7.10927,-1.34573c0.51109,-0.81913 1.01553,-1.63621 1.24764,-2.36906l-0.09165,-0.19326c0.18173,-0.06673 0.36327,-0.13397 0.54458,-0.20183c1.31496,-0.49218 2.63098,-0.95853 3.94875,-1.40387c0.43486,-1.06164 0.87836,-2.11505 1.48785,-3.01035l0.76131,-1.59356c0.2702,0.00042 0.54041,0.0008 0.81062,0.00117c0.00142,-0.00093 0.00284,-0.00186 0.00426,-0.00279c0.05255,-0.03437 0.10546,-0.06783 0.15872,-0.1004c5.63137,-0.47565 11.26973,-0.96153 16.88969,-1.54972c1.59858,-0.16731 3.30333,-1.20451 4.78635,-0.58476c0.03425,0.01431 0.06844,0.02873 0.10258,0.04325c6.95805,-2.02276 14.27695,-3.19522 21.39968,-3.74251c0.12638,-0.06081 0.25359,-0.11886 0.38159,-0.17427c3.37908,-0.39129 6.76056,-0.75996 10.14855,-1.10282c0.85726,0.00816 1.70896,0.00569 2.5468,-0.03327c0.10115,-0.00471 4.23011,-0.00682 8.9247,-0.00776c0.41961,-0.11059 0.8397,-0.21939 1.26038,-0.32594c0.32458,-0.08221 0.65383,-0.1874 0.98647,-0.30891l1.49331,0.63432c3.2145,-0.00029 6.27329,-0.00019 8.1057,-0.00016c-0.45509,0.85525 -1.14723,1.78867 -1.75967,2.69581l4.16048,1.76728c-0.7208,0.95956 -1.37188,1.99193 -2.00744,3.0405c2.78648,-0.07784 5.57306,-0.15791 8.35962,-0.2412c-0.48981,0.38506 -0.97947,0.77041 -1.47196,1.151c4.14857,0.47481 8.2995,0.92847 12.4543,1.3526c0.35712,-0.10188 0.56079,-0.15799 0.57426,-0.15742c0.99416,0.04226 1.95707,0.22498 2.89838,0.50478c3.73626,0.36585 7.47595,0.70598 11.22018,1.01434c5.79435,0.4772 11.62794,-0.00901 17.44192,-0.00861c4.45971,0.00031 8.92048,-0.03314 13.37997,-0.12015l1.21105,-0.43436c2.01276,0.07871 4.02552,0.15963 6.03828,0.24254c1.9213,-0.06503 3.84212,-0.14201 5.76228,-0.23253c10.02554,-0.47258 20.03379,-1.29826 30.06337,-1.67541c2.77157,-0.10422 5.73155,-0.92132 8.40785,-0.40803l-1.20163,1.8297l-1.04775,2.42665c2.86566,0.1417 5.73135,0.28423 8.59708,0.42695c-0.48186,0.28604 -0.96866,0.56133 -1.46192,0.82247c1.00878,0.02819 2.01768,0.05647 3.02669,0.0848c0.15287,0.16029 0.3057,0.32064 0.45878,0.4806c1.07292,-0.12527 2.14631,-0.25118 3.22007,-0.37711c1.95925,0.05519 3.91888,0.11046 5.87887,0.16559c2.22873,-0.08678 4.45704,-0.18403 6.68529,-0.2928c7.58714,0.37256 15.17463,0.73703 22.76259,1.08137c2.75206,0.06738 5.50447,0.13228 8.25711,0.19406l0.01793,0.1729c1.79788,0.07774 3.59579,0.1541 5.39372,0.22893c2.15785,-0.04706 4.31563,-0.09929 6.47332,-0.15625c0.05901,0.0011 0.11803,0.00221 0.17705,0.00331c0.23887,0.15138 0.47809,0.30179 0.71792,0.45059c6.79622,0.26585 13.59288,0.50663 20.39008,0.7137c2.41634,-0.27166 4.83328,-0.53901 7.25085,-0.80187c17.25414,0.10376 34.49883,-0.03342 51.70964,-0.56371c9.26186,-0.28537 18.54784,-0.42984 27.81063,-0.84191c0.10032,-0.02925 0.2013,-0.05703 0.30295,-0.0833c2.21771,-0.57316 4.5006,-0.56364 6.80422,-0.36506c0.14073,-0.00879 0.28146,-0.01755 0.42218,-0.0263c0.10908,-0.01586 0.21831,-0.03249 0.32768,-0.04981c0.01768,0.00869 0.03534,0.01741 0.05298,0.02616c3.93438,-0.24395 7.86831,-0.47553 11.8016,-0.68219l1.46323,0.60715c0.07747,-0.00921 0.15494,-0.01841 0.23242,-0.02762c0.03055,0.0508 0.05775,0.1035 0.08175,0.15798l2.88605,1.19754c0.89348,0.03707 1.78696,0.07454 2.68042,0.11219c1.37496,-0.94012 2.75254,-1.87321 4.18956,-2.64733c4.18442,-0.50406 8.36871,-1.00846 12.55371,-1.50334c2.20346,0.34673 4.4117,0.79682 6.59769,1.01189c1.60773,0.15817 3.21355,0.33402 4.81808,0.52144c2.01984,-0.66111 3.9857,-1.14153 5.53958,-0.00839c0.29796,0.21728 0.49345,0.47744 0.60883,0.77113c1.6605,0.21456 3.32054,0.4332 4.98089,0.64913c2.20664,-0.34154 3.88367,-0.64677 5.41253,-1.00368l1.29232,0.40045c-0.15977,0.42914 -0.29742,0.87478 -0.42006,1.33159c4.96738,0.45767 9.9336,0.92675 14.90068,1.38917l0.09365,0.17451c4.48328,0.40372 8.96979,0.78165 13.4586,1.13968c0.44244,0.01089 0.88487,0.02183 1.32731,0.03282c2.79695,0.24261 5.59481,0.47742 8.39393,0.7012c7.57279,0.60542 15.18118,0.64386 22.76381,1.11024c3.51162,0.21599 7.1193,-0.04138 10.61849,0.27819l1.96759,1.02235c1.25656,0.08135 2.51305,0.16269 3.76946,0.24415c0.87159,0.3434 1.7127,0.75604 2.53371,1.21431c0.94573,0.00064 1.89145,0.00157 2.83718,0.00283c1.85595,0.00247 3.77176,-0.29992 5.66689,-0.49517c2.16603,0.14357 4.33164,0.2886 6.49675,0.43577c0.08375,0.03057 0.16722,0.06252 0.25042,0.09591c0.14923,0.05988 0.29616,0.12343 0.4409,0.19043c0.59677,0.16297 1.14453,0.44831 1.62412,0.90384c0.04567,0.04338 0.0879,0.08747 0.12681,0.13223c2.7613,1.99766 4.7694,5.18851 7.3124,7.53198l-10.03484,3.54496l0.30834,2.63641c-0.39861,-0.02722 -0.79726,-0.05435 -1.19592,-0.08141c-0.01923,0.02295 -0.03918,0.0458 -0.05989,0.06856c-1.78885,1.96586 -4.84501,1.08167 -7.78244,0.46041l-0.37378,0.13204c-3.09498,0 -6.18979,-0.00294 -9.28442,-0.00926l-0.2937,0.23615c-0.4541,0.10605 -0.90854,0.21225 -1.36329,0.31858c-1.69122,-0.00459 -3.38222,-0.0107 -5.07315,-0.01855c-3.16859,0.79504 -6.49473,1.16242 -9.71439,1.70893c0.02213,0.17497 0.02001,0.36537 -0.00153,0.56809l1.94476,0.71995c-0.74282,0.16876 -1.48629,0.33671 -2.23041,0.50367c-0.27485,0.85241 -0.68552,1.79113 -1.00977,2.67494c2.52598,-0.01435 5.05206,-0.02186 7.57829,-0.02031c1.22283,0.00075 2.45753,-0.07997 3.69566,-0.18421l3.22833,1.19512c-0.6239,0.43371 -1.23555,0.88989 -1.84068,1.35804c4.29052,-0.39761 8.58085,-0.81285 12.87124,-1.24735l-2.09879,6.99361c-0.45083,2.28945 0.78787,5.93897 -1.35248,6.86833c-4.43444,1.92549 -9.66886,0.01338 -14.50329,0.01646c-13.67932,0.00872 -27.35299,0.20868 -41.0312,0.38397c-1.34521,0.01724 -2.69038,0.03367 -4.03554,0.04932c-7.98129,0.94463 -15.97367,1.7827 -23.99316,2.49307c-43.24839,3.83098 -86.68733,4.10035 -130.02872,6.50807l-1.93591,-6.24342c-0.15146,-0.52851 -0.44635,-1.11683 -0.78726,-1.72434c-4.26083,0.52576 -8.52034,1.06385 -12.77874,1.61176c-0.22237,-0.21719 -0.44688,-0.4307 -0.67419,-0.63938c-8.98354,0.7638 -17.96117,1.57718 -26.92081,2.52419c-31.9769,3.37988 -63.86523,7.65744 -95.65958,12.4309c-2.21586,0.09043 -4.43219,0.16487 -6.64887,0.22245l-6.423,-2.38638l-0.93667,-0.39732c-0.02785,0.00611 -0.05567,0.01221 -0.08346,0.0183l-6.63783,-2.46619c1.39663,-2.03209 2.37232,-4.52258 3.6388,-6.6964c-22.00385,1.49757 -44.02197,2.712 -66.00934,3.84537c-12.27628,0.63275 -24.55664,1.18107 -36.83685,1.73237c-5.63203,0.79982 -11.28267,1.49314 -16.94602,2.09117c-6.10037,1.41611 -12.22385,2.72541 -18.38776,3.84749c-1.21382,-0.63782 -2.4398,-1.28352 -3.59691,-1.98378c-4.51746,0.29444 -9.03815,0.53784 -13.55909,0.73582c-13.83656,1.07862 -27.6561,1.9562 -41.48815,3.45091l1.3225,-4.08439c-1.60221,-1.04189 -3.01928,-2.88488 -3.01928,-6.14495c0,-0.16721 0.00373,-0.33069 0.01102,-0.49052l-3.98309,-1.39179l3.93241,-2.7875c0.52833,-0.05714 1.05662,-0.11339 1.5849,-0.1688c0.36533,-0.44284 0.77395,-0.81199 1.20134,-1.11972c0.00806,-0.56703 -0.01117,-1.10289 -0.10805,-1.55006l1.15159,-6.3163c7.19728,-0.69604 14.3092,-1.663 21.37945,-2.81972c-0.61038,-3.3471 0.59009,-6.61497 2.48118,-9.49581c1.80854,-0.6636 3.62701,-1.31609 5.45444,-1.95537l-3.30863,-0.86153c0.81222,-0.93797 1.66494,-1.81076 2.50427,-2.60358l-6.77414,-1.78772c0.51543,-0.95988 1.02275,-1.92549 1.54719,-2.87901c-0.99465,-0.49934 -1.94183,-1.10253 -2.86545,-1.75719c0.4439,-0.53702 0.88963,-1.07193 1.34498,-1.59572l-4.76198,-1.97613c1.31645,-1.64452 2.54105,-3.37193 3.8107,-5.05868l3.98795,-2.25463c-0.0716,-0.44743 0.00418,-0.87796 0.28813,-1.28458l-0.85953,-0.59507c0.23615,-0.24981 0.4766,-0.49574 0.72196,-0.73724c0.9818,-0.96633 2.51328,-1.13196 3.79721,-1.63121c1.88514,-0.73302 3.80421,-1.37557 5.70291,-2.07279l-2.94876,-6.21813c3.22955,-0.00417 6.46021,0.00358 9.69126,0.00851l0.00989,-0.02069c0.32121,-0.02708 0.64245,-0.05419 0.96371,-0.08132c2.67184,-1.63393 6.22916,-1.03891 9.34375,-1.50842c4.09749,-0.61768 8.21345,-1.10618 12.31726,-1.68041c7.3161,-1.02373 14.6019,-1.97419 21.89888,-2.81917c1.02119,-0.44208 2.0926,-0.71623 3.19445,-0.88391c1.37165,-0.07972 2.743,-0.1625 4.11397,-0.24995c0.94603,0.00021 1.89644,0.02206 2.84013,0.03104c4.19009,-0.42403 8.39016,-0.80855 12.60799,-1.14755l1.11038,0.47166c0.76473,-0.27935 1.54742,-0.64497 2.33265,-1.01604c2.41348,-0.29086 4.82447,-0.61949 7.23246,-0.99477c0.80303,0.62052 0.60533,1.57111 0.0339,2.64497c0.26365,0.00001 0.50191,0.00001 0.7116,0.00001c1.3907,0 2.78141,0 4.17211,0l7.21957,4.72023c-1.14076,0.80732 -2.24596,1.67399 -3.35028,2.54214c26.09678,-0.78006 52.19282,-1.84273 78.21077,-3.99801c4.96568,-0.41135 9.93437,-0.78788 14.89709,-1.2335c3.51882,-0.31597 7.18192,-1.78247 10.68053,-2.00047l5.31109,1.94189c0.23979,1.60221 -0.74842,4.10411 -0.65772,5.81555l-0.46187,0.70328c0.50027,0.09595 0.99063,0.23838 1.46799,0.44064c2.0549,0.87069 3.72435,2.36275 5.31619,3.97991c-0.14507,0.0885 -0.29055,0.17612 -0.43648,0.26274c0.24292,0.0121 0.48584,0.0242 0.72876,0.0363c0.27994,0.28828 0.55804,0.57952 0.83601,0.87097c1.22612,0.03443 2.45241,0.06894 3.67885,0.10349c1.49855,-0.17575 2.99783,-0.35157 4.49762,-0.52583c2.68881,0.13353 5.37765,0.26659 8.06654,0.39862c10.2048,-0.49812 20.4085,-1.23784 30.64679,-2.32046l0.37291,3.59589c3.96125,0.08891 7.923,0.17138 11.88497,0.24558c0.05498,-0.00145 0.10996,-0.0029 0.16494,-0.00436c0.00403,0.00256 0.00807,0.00512 0.01211,0.00768c9.4531,0.17643 18.90738,0.30557 28.35884,0.36241c3.17359,-0.34506 6.34826,-0.68237 9.52411,-1.01155c17.48069,-1.81191 34.83527,-2.11896 52.4223,-2.14613c2.6497,-0.0041 5.29819,0.1159 7.9468,0.19236c5.42426,0.15659 11.20048,-1.4246 16.27165,0.50679c0.41464,0.15792 0.81836,0.3348 1.21244,0.52844c4.39026,-0.6951 8.99697,-2.50086 12.89144,-0.65079c0.30371,0.14427 0.51732,0.33906 0.65879,0.5743c3.27962,-0.38984 6.55874,-0.78462 9.83779,-1.17962c1.34862,-0.72649 2.74959,-1.31298 4.24987,-1.63389c2.72359,-0.58256 5.50988,-0.3091 8.30385,0.13055c5.26798,-0.62294 10.5371,-1.23081 15.80905,-1.80393c0.02042,0 0.04082,0 0.06124,0l12.08732,3.74545c3.24914,-0.75852 5.82909,-1.75053 11.40114,-3.82089c1.18347,-0.43973 2.63681,-1.79008 3.8804,-2.48793c0.61356,-0.0457 1.22719,-0.09047 1.84091,-0.13429l0.26145,0.1163c0.02779,0.03501 0.0548,0.07249 0.08102,0.11253c1.50585,2.29974 -1.65424,5.24301 -2.48136,7.86451l0.78938,1.47099c3.31957,0.30905 6.63953,0.61513 9.96047,0.91285c-0.08638,0.10278 -0.173,0.2053 -0.25991,0.30752c1.28391,0.03098 2.5678,0.06222 3.85169,0.09384c15.00939,1.19718 30.04455,2.17195 45.07113,3.1448l2.80457,1.45725c1.1662,0.00005 2.3324,0.0004 3.49861,0.0012c0.32175,0.17959 0.64041,0.36619 0.95661,0.55838c1.55363,0.0003 3.10708,0.0004 4.66034,0.0004l0.34614,0.55567c0.25526,0 0.51051,0.00009 0.76576,0.00028c2.86769,0.00211 6.37602,-1.59152 8.96328,-0.88497c0.62036,0.28719 1.20061,0.63794 1.75094,1.03608c1.55742,1.79171 -2.20125,4.67046 -3.20101,6.98507l0.47857,4.09187l-0.80924,0.28588c0.4148,0.81447 0.49487,1.58483 -0.07834,2.26912c-1.77707,-0.12062 -3.55457,-0.23971 -5.33242,-0.35769l-2.50991,0.88667c-1.09126,-0.2308 -2.16612,-0.4253 -3.15355,-0.42391c-1.94332,0.00274 -3.88664,0.00397 -5.82997,0.00421l-0.67469,0.54248c-1.60059,-0.00326 -3.20114,-0.00743 -4.80163,-0.01256c-0.63468,0.20442 -1.27828,0.38558 -1.92851,0.54873c-5.21801,-0.02424 -10.43533,-0.06514 -15.65614,-0.12983c-0.53055,0.06528 -1.06149,0.13309 -1.59269,0.20317c0.49701,-0.01105 0.99393,-0.02209 1.49079,-0.0331l0.86262,0.31934c1.45759,-0.19362 2.89871,-0.15225 4.31056,0.3066c0.55385,0.18 0.80818,0.55035 0.87046,1.04275c-0.11883,0.02017 -0.23753,0.04059 -0.35606,0.06128c-0.01283,0.00224 -0.2896,0.03292 -0.78045,0.08665l1.13497,0.42017c-0.0396,0.37252 -0.14479,0.78674 -0.28566,1.22362c-4.27719,0.95969 -8.57543,1.88645 -12.88864,2.74375c0.01306,0.01345 0.02611,0.02689 0.03917,0.04032c3.94641,-0.04755 7.89292,-0.08671 11.8397,-0.10913c-0.22859,0.62306 -0.41424,1.21881 -0.4791,1.7378l-1.07378,1.86578c4.73863,-0.3983 9.47667,-0.81587 14.21448,-1.25494c-3.28248,2.5395 -6.37286,5.43138 -10.18399,7.00107c-5.88224,2.42272 -12.49376,2.43765 -18.79391,3.31993c-7.05613,0.98815 -14.1098,1.90746 -21.17216,2.74333c-10.65418,0.12391 -21.30699,0.19822 -31.95881,0.2296c-19.95722,0.66271 -39.9857,0.22734 -59.90992,-0.12845c-4.94324,-0.08827 -9.88642,-0.17813 -14.8295,-0.2707c-10.53057,-0.1315 -21.06105,-0.28971 -31.5918,-0.46821c-4.96871,0.42283 -9.93998,0.83037 -14.91176,1.23686c-1.18119,0.14378 -2.36227,0.28856 -3.54326,0.43429c-0.02579,-0.04596 -0.05184,-0.09203 -0.07812,-0.13819c-4.45875,0.36483 -8.91751,0.7316 -13.37481,1.11057c-0.14255,-0.13087 -0.28621,-0.25984 -0.43113,-0.38662c-26.87872,2.66873 -53.75532,5.35962 -80.64474,7.89039c-8.98493,0.84564 -17.97789,1.56047 -26.93607,2.59486c-0.74027,0.18859 -1.48009,0.38139 -2.21946,0.5787c-4.89074,1.30512 -9.68608,4.7757 -14.67348,3.91055c-0.5755,-0.09983 -0.95434,-0.42396 -1.2088,-0.88994c-1.62295,0.27933 -3.19792,0.24761 -4.66785,-0.46017c-0.80053,-0.38546 -0.89841,-1.10022 -0.65792,-1.97356c-1.76606,0.3875 -3.51618,0.77143 -5.14946,1.12963l-5.25498,-2.2291c3.08927,-2.33675 5.92332,-5.08314 9.03035,-7.39136c-2.28577,0.16193 -4.57174,0.32058 -6.85787,0.47617c0.98062,-1.68316 2.13558,-3.17646 3.79528,-4.12011c4.76547,-2.70949 10.81925,-1.77442 16.23245,-2.63948c1.54776,-0.24734 3.09816,-0.47604 4.65073,-0.68918c-0.20396,-0.01405 -0.40792,-0.02825 -0.61189,-0.04257c-3.53045,-0.24796 -7.06087,-0.47059 -10.5892,-0.70175c2.56769,-0.55718 5.1308,-1.12939 7.68891,-1.71507c-2.03075,-0.1234 -4.06125,-0.24749 -6.09139,-0.36989c-6.60888,0.24734 -13.21964,0.46102 -19.83248,0.63823c-3.20952,-0.32999 -6.41438,-0.71581 -9.61303,-1.18322c-1.26269,-0.18451 -2.55051,-0.28305 -3.84431,-0.36118c-3.77963,0.19971 -7.55997,0.41403 -11.3421,0.64565c-0.87262,0.55562 -1.78918,1.02009 -2.73726,1.41815c-2.57456,0.02745 -5.14948,0.04878 -7.72477,0.06384c-0.67103,0.04211 -1.33755,0.05018 -1.99778,0.01042c-1.0362,0.00475 -2.07246,0.00847 -3.10878,0.01116c-0.912,0.00236 -1.82401,0.00474 -2.73602,0.0071c-0.95309,0.16007 -1.90603,0.32089 -2.85858,0.48369c-3.22401,1.03836 -6.63127,1.68922 -9.83514,2.76653c-12.31158,4.13979 -24.845,6.43133 -37.53956,8.76355c3.83048,0.03143 7.62816,0.02244 11.42203,-0.01769c-5.37044,0.97472 -10.76328,1.84127 -16.1733,2.60955c-2.9794,0.13376 -5.9588,0.26769 -8.93812,0.40304l-0.45401,-0.11691c-2.51483,0.61614 -5.03238,1.21972 -7.55389,1.80504c-7.31127,0.77204 -14.64372,1.38525 -21.98466,1.86371c-0.19614,-0.1187 -0.3903,-0.23897 -0.58209,-0.36104c-0.4076,0.03901 -0.8152,0.07704 -1.2228,0.11407c-3.91988,0.35607 -7.83771,0.67749 -11.75419,0.98279c-11.53849,0.5053 -23.07864,0.71473 -34.57128,0.72157h-1.11364c0,0 -2.39694,0 -4.48072,-1.35505z" fill="#3dd4ff" stroke="none" stroke-width="0.5"/><path d="M53.64273,61.15888c-0.29204,-0.10508 -0.5784,-0.221 -0.85971,-0.34659l-0.04198,0.25187l-3.21411,-0.53568c-3.6151,-0.537 -6.38862,-3.65372 -6.38862,-7.41822c0,-3.3738 2.22768,-6.22729 5.29236,-7.16981l6.50737,-2.16912l0.10004,0.30011l0.61723,-0.50023c2.00954,-0.25382 4.02004,-0.50187 6.03136,-0.74506c-2.67358,-1.46625 -4.67996,-3.6342 -5.17847,-6.87049c-1.4249,-9.25029 14.81101,-11.92073 19.0756,-12.93479c18.56828,-4.41528 38.27003,-6.28857 57.35155,-5.18644c3.71265,0.21444 7.38436,1.11102 11.10314,1.09007c0,0 7.5,0 7.5,7.5c0,0.79819 -0.08495,1.51143 -0.23676,2.14876c7.03581,-0.81725 14.08122,-1.78809 21.17046,-2.906c4.82769,-0.57527 9.65538,-1.15054 14.48308,-1.72581l0.44759,0.24852v-0.26189h4.44763c4.14214,0 7.5,3.35786 7.5,7.5c0,3.76451 -2.77352,6.88122 -6.38862,7.41822l-2.93682,0.48947c-4.02995,2.10952 -8.79705,2.33687 -13.24134,3.30873c-7.88996,1.72535 -15.81207,3.35044 -23.80149,4.53257c-0.40437,0.05983 -0.8088,0.11933 -1.21328,0.1785c0.56253,1.05225 0.88146,2.25432 0.88146,3.53088c0,2.99402 -1.75438,5.57828 -4.29123,6.78087l-6.52611,3.26306l-0.03712,-0.07424c-0.1342,0.0946 -0.26987,0.18747 -0.40708,0.27852c-4.30487,2.85675 -9.75784,3.39953 -14.64166,5.08512c-18.41636,6.3562 -37.37281,14.19561 -57.03908,15.25282c-4.85066,0.26076 -10.23764,1.71699 -14.56474,-0.49052c-11.77327,-6.00624 -4.56146,-12.93329 0.61408,-17.67325c0.23655,-0.21664 0.49985,-0.41468 0.78482,-0.59711c0.05349,-0.41791 0.14138,-0.82507 0.26073,-1.21855c-1.08276,0.08959 -2.14596,0.03069 -3.16027,-0.33427z" fill="#ffffff" stroke="none" stroke-width="0.5"/><path d="M352.1497,34.33506c2.15068,-3.61824 7.25848,-4.40982 11.26012,-5.71519c15.66198,-5.10906 32.94565,-4.13585 49.15419,-4.13585c0,0 7.5,0 7.5,7.5c0,0.82563 -0.09089,1.56037 -0.25266,2.21423c1.52071,1.3726 2.47647,3.35924 2.47647,5.56912c0,2.24928 -0.99015,4.2673 -2.55836,5.64196c4.01764,0.91663 7.89866,2.17426 11.48091,3.97401c3.74327,1.88065 8.94182,3.28419 10.25727,7.26144c1.17393,3.54937 -1.66106,7.80576 -4.45079,10.29444c-3.2573,2.9058 -7.99483,3.66719 -12.25681,4.61018c-7.91795,1.75189 -23.1567,1.88489 -31.31123,2.14783c-7.76478,0.24725 -15.53606,0.25438 -23.30478,0.25379l-0.17517,-0.06912l-0.00299,0.06277l-4.25273,-0.20232c-0.71043,0.08795 -1.38092,0.0801 -1.98217,-0.0943l-5.40819,-0.2573c-3.99663,-0.16446 -7.18626,-3.45652 -7.18626,-7.49356c0,-1.23064 0.2964,-2.39205 0.8217,-3.41674c-1.84753,-1.36607 -3.04551,-3.56037 -3.04551,-6.03447c0,-2.72837 1.45687,-5.11647 3.63512,-6.42881l3.60543,-2.2534c-4.65599,-2.98332 -7.6578,-7.28093 -4.00356,-13.42871z" fill="#ffffff" stroke="none" stroke-width="0.5"/><path d="M126.71758,65.48c2.89032,-1.03226 5.75185,-2.05265 8.6509,-3.00341c-0.01046,-0.04359 -0.02036,-0.08744 -0.0297,-0.13154c-0.22612,-1.06755 1.91694,-0.67035 3.14167,-0.85435c0.48712,-0.1484 0.97592,-0.29432 1.46671,-0.43749c0.36109,-0.10533 0.73083,-0.19272 1.10578,-0.26923l0.26942,-0.16727c0.28756,-0.04111 0.57516,-0.0821 0.86279,-0.12297c1.35093,-0.37241 2.69822,-0.75692 4.03099,-1.18884c0.58615,-0.18996 1.16828,-0.38262 1.74702,-0.57742c-0.10059,-0.25792 -0.63324,-1.06638 -0.70517,-1.35408c-0.27862,-1.11447 -0.54259,-2.23269 -0.7918,-3.3541c-0.56133,-2.52599 1.70767,-6.50516 3.69218,-7.82817c1.37066,-0.91378 4.28908,-0.98524 5.83303,-0.80008c0.94513,0.11334 3.16819,-0.96648 4.13168,-1.18059c3.70125,-0.8225 9.9962,1.90566 10.94107,5.68512c0.09842,0.39367 0.18562,0.78514 0.26112,1.17446c5.74003,-1.3759 10.90855,-2.03945 16.56206,-2.77336l0.45237,-0.23267c3.50072,-1.34818 7.0452,-2.58782 10.50217,-4.04453c2.44646,-1.0309 4.76664,-4.48386 7.19595,-3.41317c2.0699,0.91229 0.28429,4.51511 0.42644,6.77266l-0.00187,1.92686c0.63864,-0.05112 1.27195,-0.0253 1.89831,0.1051c0.58659,-0.12377 1.17327,-0.24719 1.76002,-0.37026l4.22703,1.77084c0.71958,-0.03256 1.43897,-0.06619 2.15816,-0.10086c-0.14761,0.27474 -0.30702,0.54303 -0.47987,0.80395l0.69175,0.28979c1.6119,-0.44999 3.22439,-0.90165 4.83753,-1.35421c14.89466,-0.81794 29.71936,-2.06467 44.57077,-3.56308c1.28908,-2.00607 2.72672,-3.82853 4.79668,-4.86944c4.84756,-2.43766 10.78878,-1.16984 16.17854,-1.79554c1.10485,-0.12826 2.20848,-0.25558 3.31109,-0.38176c0.84532,-0.49519 1.72861,-0.81384 2.70042,-0.74513c0.31202,0.02206 0.53939,0.15211 0.70588,0.35875c4.81914,-0.54144 9.62217,-1.05767 14.4244,-1.53357c0.36322,0.9849 0.53343,1.93851 0.5416,2.85938c4.09747,-0.29752 8.19187,-0.5497 12.27775,-0.72204c0.86979,-0.03669 1.82275,-0.09565 2.82611,-0.14521c1.32076,-0.20857 2.64781,-0.29839 3.9856,-0.18535c0.25651,0.02167 0.50469,0.06688 0.74574,0.13224c4.94872,0.22672 9.92673,1.64454 11.78957,7.29518c0.02753,0.0835 -0.22229,0.77677 -0.63585,1.78687c0.14954,0.00686 0.29544,0.0173 0.43705,0.03058c1.80171,-1.00488 4.1231,-1.58218 5.83588,-2.66023l3.13873,-0.14564c0,0 7.5,0 7.5,7.5c0,1.85094 -0.4568,3.24509 -1.14493,4.29517c0.00175,0.01871 0.00344,0.03744 0.00505,0.0562c0.15684,-0.06519 0.31473,-0.13174 0.47074,-0.19604c0.09349,0.01066 0.18666,0.02151 0.27948,0.03256l1.66774,0.94764c-0.22396,1.39315 -1.04936,2.66547 -1.9011,3.93249c3.01502,0.6774 6.22076,1.27946 9.97613,1.90035c0.67561,-0.03239 1.35134,-0.06323 2.02719,-0.0926l1.01788,0.57838c4.38463,0.66325 8.79528,1.15163 13.20023,1.66482c2.78087,0.32398 5.72343,-0.01712 8.47897,0.37213c2.22378,-0.10582 4.44873,-0.20487 6.6746,-0.29761c1.47656,-0.68662 2.91075,-1.25985 3.95785,-0.32624c0.05853,0.05219 0.11171,0.10616 0.15983,0.16182c2.26899,-0.08673 4.53877,-0.16718 6.80908,-0.24183l6.48367,4.55082c2.18851,-0.22292 4.4441,-0.20967 6.60967,-0.35534c3.46816,-0.23329 6.94516,-0.29461 10.42362,-0.26883c-0.99062,-1.02781 -2.049,-2.3042 -0.46445,-5.07716l0.12759,-2.29655c0.72115,-0.61813 1.94826,-2.0035 2.93484,-2.51558c0.23603,-0.12251 2.56196,-1.07216 2.54343,-1.08605c-6.28206,-4.70884 -16.73155,-2.21189 -20.18834,-10.77747c-3.52506,-8.73472 11.00081,-13.33125 17.29442,-12.45241c2.29727,0.32079 5.27575,1.12916 6.49461,3.45795c3.76078,-0.91762 7.52976,-1.4217 11.46728,-1.65085c1.78055,-0.06747 3.56176,-0.1174 5.34292,-0.15332c0.02644,-0.00053 0.05289,-0.00106 0.07933,-0.00159c0.02785,-0.00007 0.05572,-0.00013 0.08359,-0.00018l0.29722,0.15797c0.11573,-0.04881 0.23194,-0.09665 0.34866,-0.14348c0.02508,-0.01006 0.05019,-0.01999 0.07534,-0.0298c5.94517,-0.10971 11.87507,-0.11693 17.79723,-0.04676c1.44533,-0.42476 2.88945,-0.85304 4.33201,-1.28578c2.6326,-0.78973 5.18094,-2.31803 7.78753,-3.2603c0.48453,-0.09499 0.96885,-0.19092 1.45297,-0.28777l1.27256,5.15758c4.73589,0.14578 9.47086,0.32772 14.20875,0.53294c0.35314,0.2065 0.70894,0.40411 1.06829,0.58991l-2.27352,1.37936c6.42503,-0.78966 13.15576,-0.72047 19.23548,-0.54006c0.36083,0.01071 0.72792,0.00434 1.09882,-0.01187l9.64005,5.75454c-2.88066,3.17139 -5.14276,7.04204 -8.64197,9.51418c-0.46006,0.32502 -1.24989,0.61865 -2.24847,0.88352c-2.8045,2.59871 -5.44012,5.46341 -8.76009,7.25024c0.40462,2.12225 0.20226,4.44893 -0.83785,6.99383c-0.31569,0.77242 -0.73163,1.52198 -1.22766,2.22349l3.95316,1.88187c-1.02061,0.89886 -2.0454,1.79576 -3.07528,2.68777c0.19007,1.45131 -1.39223,3.68433 -1.66253,5.33869l-1.00082,4.71017c-3.21401,0.01799 -6.42701,0.0033 -9.6392,-0.03585c-2.61825,1.95601 -5.28721,3.81663 -8.01989,5.54033c-0.59912,0.37791 -1.20612,0.74225 -1.81919,1.09617c-1.94452,0.04011 -3.88997,0.05614 -5.83142,0.06148c-0.56682,0.63052 -1.22708,1.04472 -2.07496,1.02596c-0.62646,-0.01386 -0.90119,-0.41801 -0.99359,-1.02449c-2.20713,-0.00254 -4.4057,-0.00982 -6.58839,-0.002c-2.22873,0.00799 -4.45747,0.01526 -6.68622,0.02186c0.84092,-2.51043 1.48578,-5.10945 2.52202,-7.53163c-1.91094,-0.06672 -3.8218,-0.1332 -5.73264,-0.1977c-9.84749,1.7065 -19.86323,2.36728 -29.89819,2.60978c-3.11053,2.02542 -6.18483,4.14791 -9.71944,5.03738l0.00397,0.02063c-0.02154,-0.00183 -0.04309,-0.00366 -0.06463,-0.00549c-0.09524,0.02355 -0.19081,0.0462 -0.28673,0.06793c-0.08645,0.01958 -0.17297,0.03813 -0.25955,0.05567c-1.97587,-0.00013 -3.95174,-0.00054 -5.92761,-0.00121c-2.61615,-0.36753 -5.25397,-1.01827 -7.86446,-1.17402c-4.94242,-0.29489 -9.89423,-0.40259 -14.84132,-0.60434c-8.19515,-0.33421 -16.38451,-0.77416 -24.57067,-1.27156c-2.8387,1.15059 -5.78832,3.07185 -8.34047,1.78031c-0.86348,-0.43697 -0.85511,-1.3082 -0.52576,-2.3393c-2.50338,-0.16291 -5.00655,-0.32956 -7.50958,-0.49858l-0.64242,-0.45282c-2.36898,-0.03826 -4.36613,-0.03091 -6.15498,-0.01097c-5.14159,-0.35367 -10.28288,-0.71203 -15.42452,-1.06309l-2.23374,-1.44282c-2.60116,0.13939 -5.24538,0.11458 -7.8018,0.42317c-0.46248,0.05583 -0.92503,0.11108 -1.38764,0.16577c-1.58219,-0.30924 -3.1013,-0.78145 -4.45016,-1.62828c-0.02445,-0.01535 -0.04883,-0.03078 -0.07314,-0.04629c-1.65312,0.39635 -3.29145,0.80038 -4.91046,1.20738c-1.88987,0.47509 -3.71929,1.32256 -5.56078,2.05636c-3.20836,0.30409 -6.41871,0.58742 -9.63021,0.85389c-3.49886,-0.85244 -6.86646,-2.54829 -10.34056,-3.55985l1.21689,-2.54657c-10.43816,0.35878 -21.77599,0.86981 -31.69716,-0.969c-2.49799,0.40068 -4.45452,0.67224 -5.31437,0.77856c-17.41886,2.15394 -35.00186,1.75995 -52.42731,0.25386l-1.80003,-1.13295c-0.85215,1.03549 -1.74264,2.02248 -2.73601,2.87935l-8.05024,-5.24352l-3.39431,5.7535c-22.48558,0 -45.01426,-0.40089 -67.4964,-0.00726c-1.01619,0.01779 -2.03108,0.05969 -3.04501,0.11965c-2.52356,0.67188 -5.01844,1.44642 -7.51329,2.2216c-0.78906,0.74171 -1.64129,1.40223 -2.59387,1.9338c-1.95151,1.08902 -4.23906,1.18031 -6.54561,1.18178c-1.27366,0.63887 -2.55769,1.32741 -3.80425,1.73923c-0.94801,0.0955 -1.89607,0.19546 -2.84418,0.30021c-0.41109,-0.07952 -0.81271,-0.2262 -1.20275,-0.45462c-0.50177,-0.29386 -0.69316,-0.69417 -0.67487,-1.16639c-1.09357,0.06806 -2.18759,0.12989 -3.2818,0.18921l-4.46933,-2.82085c-0.8661,-0.00551 -1.7323,-0.01052 -2.59858,-0.01478c-2.5948,0.2262 -5.18798,0.47424 -7.77856,0.76024c-10.06253,1.11091 -20.14699,2.0761 -30.25284,2.67632c-0.1173,0.00697 -0.23482,0.01527 -0.35253,0.02479c-0.76794,-0.00487 -1.53508,-0.00837 -2.30132,-0.01015c-2.84183,0.23685 -5.6836,0.43385 -8.52629,0.60389c-0.05489,-0.01824 -0.10967,-0.03715 -0.16435,-0.05674c-0.96003,-0.34392 -1.85227,-0.81123 -2.69897,-1.36143c-4.79291,0.59575 -9.58011,1.24495 -14.369,1.86526c-0.87079,0.11279 -1.7478,0.28113 -2.6273,0.46373c-1.17368,0.04703 -2.34789,0.09457 -3.5227,0.14351l-3.41892,-7.13289c-0.34156,-0.86879 -1.03097,-1.80247 -1.69531,-2.73148c-3.18685,0.77785 -6.44063,1.45772 -9.81551,2.02369l-0.63881,-0.22265l7.62651,-3.55102c-0.02458,-0.00704 -0.04917,-0.01411 -0.07377,-0.02119c-1.72197,0.91822 -3.43662,1.74901 -5.09946,1.09255c-0.9837,-0.38835 -1.17902,-1.42602 -1.17524,-2.62769c-3.36939,0.46854 -6.32702,0.71982 -7.49531,0.3879c-1.76982,-0.50281 -3.40368,-1.33371 -4.98654,-2.28765c1.89258,-2.54484 3.66817,-5.2127 5.86001,-7.44287c-0.98497,0.14789 -1.94379,0.11743 -2.85017,-0.28896c-0.01633,-0.00732 -0.03259,-0.01472 -0.04878,-0.02221c-0.89041,0.02372 -1.78102,0.03697 -2.67174,0.03867l-0.98547,-2.65887l0.59224,-0.62446c-0.79637,-1.4045 -1.46667,-2.96513 -2.38653,-4.21667c1.50229,-2.49451 2.10285,-5.84033 4.50688,-7.48353c0.01353,-0.00925 0.02708,-0.01841 0.04067,-0.02749c8.61209,-0.12476 17.14922,-1.26881 25.66923,-2.5784c0.32982,-0.03343 0.65943,-0.06737 0.98886,-0.10184c0.05366,-0.02527 0.10732,-0.05055 0.16098,-0.07585c1.01238,-0.1572 2.02455,-0.3162 3.03662,-0.47556c0.67238,-0.10587 1.34504,-0.21133 2.01759,-0.31793c1.0101,-0.48345 2.15084,-0.79092 3.15823,-1.26807c1.22871,-0.58199 2.46842,-1.14113 3.71698,-1.68044c0.82383,0.20833 1.65926,0.59186 2.44291,1.23512c0.04485,-0.01019 0.0897,-0.02042 0.13453,-0.03068c1.95289,-0.44717 4.33855,-3.33146 5.71126,-1.8722c0.44879,0.47709 0.63659,1.04753 0.667,1.67428c2.29763,-0.36014 4.59846,-0.73361 6.9066,-1.11648l0.51818,0.18947c0.67349,-0.32765 1.32761,-0.60247 1.91878,-0.71147l1.72596,0.45627c0.05079,0.05533 0.09964,0.11572 0.14647,0.18143c0.35983,0.50496 0.45832,1.04182 0.38264,1.59993l0.14401,0.05266c-0.18744,0.55751 -0.35994,1.12478 -0.52716,1.6955c2.6439,0.73478 5.10194,2.00023 7.53942,3.32436c1.19468,-0.07183 2.3923,-0.1376 3.5908,-0.19933c-0.43606,0.47548 -0.86183,0.96328 -1.28359,1.45589c1.00008,0.53841 2.00547,1.06166 3.02754,1.53729l-0.72317,0.80429c0.97316,-0.12013 1.94487,-0.24303 2.91486,-0.36872c4.09431,-0.53052 8.15766,-1.29514 12.20214,-2.12402c1.44736,-0.29662 2.88209,-0.95239 4.31385,-1.51381l2.52617,6.64355c0.9828,1.61336 3.05449,3.13162 4.08642,4.74069l-1.30627,0.57128c1.91333,1.07303 3.25404,2.96215 3.34406,6.02171c6.20852,0.01333 12.41416,0.05263 18.61034,0.05263l0.91286,0.40852c4.4537,-1.24423 8.91671,-2.45922 13.39552,-3.60996c0.70717,-0.04202 1.41478,-0.07586 2.12294,-0.09968c0.85655,-1.51241 1.38246,-3.2683 2.58355,-4.52161c1.81441,-1.8933 6.86325,-0.51051 8.91898,-0.25354zM179.73547,71.18136c0.13604,0.00023 0.27207,0.00044 0.40811,0.00064c-0.0097,-0.02972 -0.0193,-0.05937 -0.0288,-0.08895c-0.12644,0.02943 -0.25288,0.05887 -0.37931,0.08831z" fill="#3dd4ff" stroke="none" stroke-width="0.5"/></g></g></svg>