<svg version="1.1" xmlns="http://www.w3.org/2000/svg" xmlns:xlink="http://www.w3.org/1999/xlink" width="62.85336" height="60.61904" viewBox="0,0,62.85336,60.61904"><g transform="translate(-209.85639,-157.38044)"><g stroke="none" stroke-miterlimit="10"><text transform="translate(210.14661,215.3875) scale(0.24876,0.24876)" font-size="40" xml:space="preserve" fill="#ffffff" stroke-width="1" font-family="Pixel" font-weight="normal" text-anchor="start"><tspan x="0" dy="0">Lemonade x</tspan></text><path d="M259.59365,157.38045c2.5,0 2.5,2.5 2.5,2.5l-0.01931,1.87549c1.29219,10.33755 1.32584,21.57721 -1.6453,31.61997c-1.19821,4.05007 -2.95217,8.8309 -6.88213,10.88273c-5.60638,2.92709 -12.87762,1.78282 -18.73242,0.47308c-3.74323,-1.48734 -8.46411,-2.61 -11.70755,-5.08526c-6.24277,-4.76421 -7.06313,-11.25181 -8.72127,-18.27254c-0.91253,-3.86375 -2.15853,-7.64404 -1.9354,-11.65761c0.15985,-2.87529 0.94705,-5.37215 0.93184,-8.27474c0,0 0,-2.5 2.5,-2.5c2.5,0 2.5,2.5 2.5,2.5c-0.01327,3.01798 -0.75451,5.6187 -0.94151,8.58542c-0.21809,3.46006 1.02927,6.86269 1.8113,10.19815c1.3762,5.8697 1.69227,11.40313 6.88999,15.44777c2.71613,2.11357 6.99681,3.01147 10.14821,4.2815c3.56924,0.78648 6.90705,1.22356 10.54626,0.83975c1.81071,-0.19096 4.5899,-0.35243 5.86103,-1.94853c1.95268,-2.4519 2.82849,-6.58927 3.52643,-9.56596c2.0342,-8.67574 1.99546,-18.05272 0.8891,-26.90357l-0.01931,-2.49566c0,0 0,-2.5 2.5,-2.5z" fill="#000000" stroke-width="0.5"/><path d="M253.42373,159.58322c0.88735,-0.48899 1.79156,-0.75673 2.6305,-0.36456c1.59973,0.74781 1.35605,6.09317 1.35605,7.84297c0,9.6122 1.39362,20.36571 -1.44392,29.60987c-0.73483,0.46609 -1.51427,0.85086 -2.31035,1.20528c-0.11414,0.38263 -0.28567,0.73659 -0.54827,1.04238c-0.85001,0.98981 -2.22317,1.37261 -3.54508,1.66118c-0.42142,0.32364 -0.94891,0.51602 -1.52134,0.51602c-0.14904,0 -0.29504,-0.01304 -0.43691,-0.03805c-2.86344,0.84167 -5.45548,-0.25243 -8.30326,-0.60571c-6.43123,-0.79783 -13.68156,-2.67465 -17.91239,-8.14439c-2.59713,-3.35764 -2.54552,-7.12719 -3.28075,-11.04964c-0.3815,-2.03528 -1.22873,-3.59632 -0.66696,-5.76688v-2.81003c0,-0.26766 0.04206,-0.5255 0.11994,-0.76726c-0.07568,-0.62149 -0.1267,-1.06436 -0.11975,-1.07523c0.02008,-0.03144 0.04154,-0.06101 0.06426,-0.08882c-0.01441,-0.06221 -0.0265,-0.12531 -0.03617,-0.18921l-0.01587,-0.00159l0.00659,-0.06594c-0.00261,-0.02114 -0.00496,-0.04236 -0.00704,-0.06365l-0.29786,-2.68077c-0.44796,-2.0657 -0.64148,-4.19402 -0.65077,-6.30763c0,0 0,-2.5 2.5,-2.5c0.49939,0 0.89902,0.09975 1.21882,0.25941c0.01855,-0.01538 0.03733,-0.03039 0.05636,-0.04502c1.99447,-1.53371 5.685,0.35394 7.65417,0.77264c5.85845,1.24568 12.51363,0.05392 18.39113,-0.66998c1.08684,0 6.17822,-0.07578 7.09888,0.32459zM233.40122,190.67628c0.00368,-0.01654 0.00735,-0.03308 0.01101,-0.04961l-0.12922,0.20675c0.03216,-0.00191 0.06434,-0.00386 0.09647,-0.00568l0.00436,-0.03486l0.05697,0.00712zM252.44004,186.1986c-0.00708,0.04887 -0.0142,0.09772 -0.02135,0.14655c0.0059,0.00476 0.01179,0.00954 0.01765,0.01435c0.00127,-0.05363 0.0025,-0.10727 0.0037,-0.1609z" fill="#e5bf6c" stroke-width="0.5"/></g></g></svg>